<svg width="64" height="64" viewBox="0 0 64 64" fill="none" xmlns="http://www.w3.org/2000/svg">
<g filter="url(#filter0_dii_494_1337)">
<rect x="4" width="56" height="56" rx="28" fill="#F3F3F3" shape-rendering="crispEdges"/>
<rect x="4.5" y="0.5" width="55" height="55" rx="27.5" stroke="#EC2828" shape-rendering="crispEdges"/>
<circle opacity="0.14" cx="32.5" cy="28.5" r="9.5" fill="#EC2828"/>
<g opacity="0.14" filter="url(#filter1_d_494_1337)">
<circle cx="32.5" cy="28.5" r="19" stroke="#EC2828" stroke-dasharray="2 2" shape-rendering="crispEdges"/>
</g>
<path d="M26.7644 18.3932L28.6 31.7C28.5925 32.0435 28.6547 32.385 28.7827 32.7038C28.9108 33.0226 29.102 33.3122 29.3449 33.5551C29.5879 33.798 29.8775 33.9893 30.1963 34.1173C30.5151 34.2453 30.8565 34.3075 31.2 34.3H33.8C34.1435 34.3075 34.4849 34.2453 34.8037 34.1173C35.1225 33.9893 35.4121 33.798 35.6551 33.5551C35.898 33.3122 36.0892 33.0226 36.2173 32.7038C36.3453 32.385 36.4074 32.0435 36.4 31.7L38.2356 18.3932C38.2356 14.8 32.5 14.8 32.5 14.8C32.5 14.8 26.7566 14.8 26.7644 18.3932ZM22.1 20C18.2 20 18.2 22.6 18.2 22.6L20.8 33H24.7C25.2349 33.0011 25.7492 32.7942 26.1344 32.423C26.5196 32.0519 26.7455 31.5456 26.7644 31.011L24.7 20H22.1ZM16.9 26.5C15.8789 26.4912 14.8933 26.8747 14.1466 27.5712C13.4922 28.1662 13.0833 28.9839 13 29.8644V35.6H15.2932C15.6579 35.6353 16.026 35.5946 16.3742 35.4805C16.7224 35.3663 17.0432 35.1813 17.3163 34.937C17.5894 34.6927 17.809 34.3945 17.9611 34.0611C18.1132 33.7277 18.1945 33.3664 18.2 33L16.9 26.5ZM42.9 20C46.8 20 46.8 22.6 46.8 22.6L44.2 33H40.3C39.7651 33.0011 39.2508 32.7942 38.8656 32.423C38.4804 32.0519 38.2545 31.5456 38.2356 31.011L40.3 20H42.9ZM48.1 26.5C49.1211 26.4912 50.1067 26.8747 50.8534 27.5712C51.5078 28.1662 51.9167 28.9839 52 29.8644V35.6H49.7068C49.3421 35.6353 48.974 35.5946 48.6258 35.4805C48.2776 35.3663 47.9568 35.1813 47.6837 34.937C47.4106 34.6927 47.191 34.3945 47.0389 34.0611C46.8868 33.7277 46.8055 33.3664 46.8 33L48.1 26.5Z" fill="#EC2828"/>
</g>
<defs>
<filter id="filter0_dii_494_1337" x="0" y="-4" width="64" height="68" filterUnits="userSpaceOnUse" color-interpolation-filters="sRGB">
<feFlood flood-opacity="0" result="BackgroundImageFix"/>
<feColorMatrix in="SourceAlpha" type="matrix" values="0 0 0 0 0 0 0 0 0 0 0 0 0 0 0 0 0 0 127 0" result="hardAlpha"/>
<feOffset dy="4"/>
<feGaussianBlur stdDeviation="2"/>
<feComposite in2="hardAlpha" operator="out"/>
<feColorMatrix type="matrix" values="0 0 0 0 0 0 0 0 0 0 0 0 0 0 0 0 0 0 0.25 0"/>
<feBlend mode="normal" in2="BackgroundImageFix" result="effect1_dropShadow_494_1337"/>
<feBlend mode="normal" in="SourceGraphic" in2="effect1_dropShadow_494_1337" result="shape"/>
<feColorMatrix in="SourceAlpha" type="matrix" values="0 0 0 0 0 0 0 0 0 0 0 0 0 0 0 0 0 0 127 0" result="hardAlpha"/>
<feOffset dy="4"/>
<feGaussianBlur stdDeviation="2"/>
<feComposite in2="hardAlpha" operator="arithmetic" k2="-1" k3="1"/>
<feColorMatrix type="matrix" values="0 0 0 0 0 0 0 0 0 0 0 0 0 0 0 0 0 0 0.13 0"/>
<feBlend mode="normal" in2="shape" result="effect2_innerShadow_494_1337"/>
<feColorMatrix in="SourceAlpha" type="matrix" values="0 0 0 0 0 0 0 0 0 0 0 0 0 0 0 0 0 0 127 0" result="hardAlpha"/>
<feOffset dy="-6"/>
<feGaussianBlur stdDeviation="2"/>
<feComposite in2="hardAlpha" operator="arithmetic" k2="-1" k3="1"/>
<feColorMatrix type="matrix" values="0 0 0 0 1 0 0 0 0 1 0 0 0 0 1 0 0 0 0.55 0"/>
<feBlend mode="normal" in2="effect2_innerShadow_494_1337" result="effect3_innerShadow_494_1337"/>
</filter>
<filter id="filter1_d_494_1337" x="9" y="9" width="47" height="47" filterUnits="userSpaceOnUse" color-interpolation-filters="sRGB">
<feFlood flood-opacity="0" result="BackgroundImageFix"/>
<feColorMatrix in="SourceAlpha" type="matrix" values="0 0 0 0 0 0 0 0 0 0 0 0 0 0 0 0 0 0 127 0" result="hardAlpha"/>
<feOffset dy="4"/>
<feGaussianBlur stdDeviation="2"/>
<feComposite in2="hardAlpha" operator="out"/>
<feColorMatrix type="matrix" values="0 0 0 0 0 0 0 0 0 0 0 0 0 0 0 0 0 0 0.25 0"/>
<feBlend mode="normal" in2="BackgroundImageFix" result="effect1_dropShadow_494_1337"/>
<feBlend mode="normal" in="SourceGraphic" in2="effect1_dropShadow_494_1337" result="shape"/>
</filter>
</defs>
</svg>
