<svg width="167" height="26" viewBox="0 0 167 26" fill="none" xmlns="http://www.w3.org/2000/svg">
<path d="M26.5488 0C27.3501 0 28 0.661664 28 1.47754V9.16016C27.976 9.1597 27.9519 9.15918 27.9277 9.15918C25.8044 9.15918 24.083 10.9121 24.083 13.0742C24.0832 15.2361 25.8046 16.9883 27.9277 16.9883C27.9519 16.9883 27.976 16.9868 28 16.9863V24.5225C28 25.3383 27.3501 26 26.5488 26H1.45117C0.64993 26 0 25.3383 0 24.5225V16.9863C2.08969 16.9469 3.77227 15.2114 3.77246 13.0742C3.77246 10.9368 2.08981 9.19954 0 9.16016V1.47754C0 0.661664 0.64993 0 1.45117 0H26.5488ZM9.11523 5.7168V20.3418H15.0947C15.8864 20.3418 16.6104 20.1646 17.2656 19.8096C17.9209 19.4474 18.4429 18.9661 18.832 18.3672C19.221 17.7614 19.416 17.0897 19.416 16.3516C19.416 16.0243 19.3954 15.6587 19.3545 15.2549C19.3135 14.8441 19.2253 14.4398 19.0889 14.043C18.9592 13.639 18.7604 13.284 18.4941 12.9775C18.2279 12.6711 17.8665 12.462 17.4092 12.3506C17.7641 12.1834 18.0374 11.9536 18.2285 11.6611C18.4196 11.3686 18.5528 11.055 18.6279 10.7207C18.703 10.3795 18.7402 10.0554 18.7402 9.74902C18.7402 8.93434 18.5521 8.22397 18.1768 7.61816C17.8082 7.01241 17.3066 6.54603 16.6719 6.21875C16.0371 5.88446 15.327 5.7168 14.542 5.7168H9.11523ZM14.7676 13.8135C15.1224 13.8135 15.4429 13.904 15.7295 14.085C16.0229 14.266 16.2551 14.5025 16.4258 14.7949C16.6033 15.0805 16.6924 15.3837 16.6924 15.7041C16.6923 16.087 16.6032 16.4281 16.4258 16.7275C16.2551 17.0269 16.023 17.2634 15.7295 17.4375C15.4429 17.6046 15.1224 17.6885 14.7676 17.6885H12.1875V13.8135H14.7676ZM14.1738 8.3916C14.5833 8.39164 14.935 8.50654 15.2285 8.73633C15.5218 8.96614 15.6689 9.29687 15.6689 9.72852C15.6689 10.1532 15.5218 10.5047 15.2285 10.7832C14.935 11.0617 14.5833 11.2011 14.1738 11.2012H12.1875V8.3916H14.1738Z" fill="#595666"/>
<path d="M41.046 10.804C41.7273 10.804 42.348 10.9697 42.908 11.301C43.468 11.6323 43.9137 12.078 44.245 12.638C44.5763 13.1933 44.742 13.8093 44.742 14.486C44.742 14.9947 44.6463 15.473 44.455 15.921C44.2637 16.369 43.9977 16.7633 43.657 17.104C43.321 17.44 42.929 17.7037 42.481 17.895C42.0377 18.0863 41.5593 18.182 41.046 18.182C40.6773 18.182 40.346 18.1027 40.052 17.944C39.758 17.7853 39.5013 17.5847 39.282 17.342V18H37.182V7.5H39.282V11.644C39.5013 11.3967 39.758 11.196 40.052 11.042C40.346 10.8833 40.6773 10.804 41.046 10.804ZM41.018 16.152C41.3073 16.152 41.571 16.0773 41.809 15.928C42.047 15.7787 42.236 15.578 42.376 15.326C42.516 15.074 42.586 14.794 42.586 14.486C42.586 14.1827 42.516 13.905 42.376 13.653C42.236 13.401 42.047 13.2003 41.809 13.051C41.571 12.897 41.3073 12.82 41.018 12.82C40.7333 12.82 40.472 12.897 40.234 13.051C40.0007 13.2003 39.814 13.401 39.674 13.653C39.534 13.905 39.464 14.1827 39.464 14.486C39.464 14.794 39.534 15.074 39.674 15.326C39.814 15.578 40.0007 15.7787 40.234 15.928C40.472 16.0773 40.7333 16.152 41.018 16.152ZM49.1436 18.182C48.4996 18.182 47.9116 18.0163 47.3796 17.685C46.8523 17.3537 46.43 16.9103 46.1126 16.355C45.8 15.795 45.6436 15.1767 45.6436 14.5C45.6436 13.9867 45.7346 13.5083 45.9166 13.065C46.0986 12.617 46.3483 12.225 46.6656 11.889C46.9876 11.5483 47.361 11.2823 47.7856 11.091C48.2103 10.8997 48.663 10.804 49.1436 10.804C49.7876 10.804 50.3733 10.9697 50.9006 11.301C51.4326 11.6323 51.855 12.078 52.1676 12.638C52.485 13.198 52.6436 13.8187 52.6436 14.5C52.6436 15.0087 52.5526 15.4847 52.3706 15.928C52.1886 16.3713 51.9366 16.7633 51.6146 17.104C51.2973 17.44 50.9263 17.7037 50.5016 17.895C50.0816 18.0863 49.629 18.182 49.1436 18.182ZM49.1436 16.082C49.4096 16.082 49.6476 16.0097 49.8576 15.865C50.0723 15.7203 50.2403 15.529 50.3616 15.291C50.483 15.0483 50.5436 14.7847 50.5436 14.5C50.5436 14.206 50.4783 13.9377 50.3476 13.695C50.2216 13.4523 50.0513 13.261 49.8366 13.121C49.6266 12.9763 49.3956 12.904 49.1436 12.904C48.8823 12.904 48.6443 12.9787 48.4296 13.128C48.2196 13.2727 48.0516 13.4663 47.9256 13.709C47.8043 13.9517 47.7436 14.2153 47.7436 14.5C47.7436 14.7987 47.8066 15.067 47.9326 15.305C48.0633 15.543 48.2336 15.732 48.4436 15.872C48.6583 16.012 48.8916 16.082 49.1436 16.082ZM60.4655 13.527V18H58.3655V14.115C58.3655 13.8957 58.3119 13.6973 58.2045 13.52C58.0972 13.338 57.9549 13.1957 57.7775 13.093C57.6002 12.9857 57.4019 12.932 57.1825 12.932C56.9632 12.932 56.7625 12.9857 56.5805 13.093C56.4032 13.1957 56.2609 13.338 56.1535 13.52C56.0509 13.6973 55.9995 13.8957 55.9995 14.115V18H53.8995L53.8925 11H55.9925L55.9995 11.441C56.2329 11.2403 56.4989 11.084 56.7975 10.972C57.0962 10.86 57.4112 10.804 57.7425 10.804C58.2465 10.804 58.7039 10.9277 59.1145 11.175C59.5252 11.4177 59.8519 11.7443 60.0945 12.155C60.3419 12.5657 60.4655 13.023 60.4655 13.527ZM65.3392 8.2H67.7052L71.2612 18H69.0352L68.4752 16.46H64.5692L64.0092 18H61.7832L65.3392 8.2ZM65.3392 14.36H67.7052L66.5152 11.112L65.3392 14.36ZM72.5718 18V8.2H76.2678C76.8045 8.2 77.2898 8.33767 77.7238 8.613C78.1625 8.88367 78.5102 9.24767 78.7668 9.705C79.0235 10.1577 79.1518 10.6547 79.1518 11.196C79.1518 11.7467 79.0188 12.2483 78.7528 12.701C78.4915 13.1537 78.1415 13.5153 77.7028 13.786C77.2642 14.0567 76.7858 14.192 76.2678 14.192H74.6718V18H72.5718ZM74.6718 12.092H76.0298C76.2165 12.092 76.3868 12.0453 76.5408 11.952C76.6948 11.854 76.8185 11.7257 76.9118 11.567C77.0052 11.4083 77.0518 11.2333 77.0518 11.042C77.0518 10.8507 77.0052 10.6757 76.9118 10.517C76.8185 10.3583 76.6948 10.2323 76.5408 10.139C76.3868 10.041 76.2165 9.992 76.0298 9.992H74.6718V12.092ZM88.1811 18H85.4371L82.9311 14.458L82.6511 14.794V18H80.5511V8.2H82.6511V11.532L85.4371 8.2H88.1811L84.3031 12.82L88.1811 18ZM92.4353 8.2H94.8013L98.3573 18H96.1313L95.5713 16.46H91.6653L91.1053 18H88.8793L92.4353 8.2ZM92.4353 14.36H94.8013L93.6113 11.112L92.4353 14.36ZM103.518 18V8.2H109.482V9.18H104.498V12.26H108.621V13.24H104.498V17.02H109.482V18H103.518ZM117.328 13.667V18H116.348V13.863C116.348 13.4803 116.255 13.1327 116.068 12.82C115.882 12.5073 115.632 12.2577 115.319 12.071C115.007 11.8843 114.659 11.791 114.276 11.791C113.898 11.791 113.551 11.8843 113.233 12.071C112.921 12.2577 112.671 12.5073 112.484 12.82C112.298 13.1327 112.204 13.4803 112.204 13.863V18H111.224V11H112.204V11.966C112.452 11.6113 112.774 11.329 113.17 11.119C113.567 10.909 113.999 10.804 114.465 10.804C114.993 10.804 115.473 10.9323 115.907 11.189C116.341 11.4457 116.687 11.791 116.943 12.225C117.2 12.659 117.328 13.1397 117.328 13.667ZM122.507 11.98H120.834L120.827 18H119.847L119.854 11.98H118.587V11H119.854L119.847 8.802H120.827L120.834 11H122.507V11.98ZM126.845 18.182C126.201 18.182 125.613 18.0163 125.081 17.685C124.553 17.3537 124.131 16.9103 123.814 16.355C123.501 15.795 123.345 15.1767 123.345 14.5C123.345 13.9867 123.436 13.5083 123.618 13.065C123.8 12.617 124.049 12.225 124.367 11.889C124.689 11.5483 125.062 11.2823 125.487 11.091C125.911 10.8997 126.364 10.804 126.845 10.804C127.363 10.804 127.839 10.9067 128.273 11.112C128.711 11.3173 129.087 11.6043 129.4 11.973C129.717 12.3417 129.955 12.7733 130.114 13.268C130.277 13.7627 130.345 14.297 130.317 14.871H124.381C124.437 15.3143 124.577 15.711 124.801 16.061C125.029 16.411 125.319 16.6887 125.669 16.894C126.023 17.0947 126.415 17.1973 126.845 17.202C127.311 17.202 127.731 17.0807 128.105 16.838C128.483 16.5953 128.786 16.2617 129.015 15.837L130.009 16.068C129.729 16.6887 129.306 17.1973 128.742 17.594C128.177 17.986 127.545 18.182 126.845 18.182ZM124.353 14.08H129.33C129.297 13.646 129.164 13.2493 128.931 12.89C128.702 12.526 128.406 12.2367 128.042 12.022C127.678 11.8027 127.279 11.693 126.845 11.693C126.411 11.693 126.014 11.8003 125.655 12.015C125.295 12.225 125.001 12.512 124.773 12.876C124.544 13.2353 124.404 13.6367 124.353 14.08ZM131.717 18V11H132.697V11.966C132.944 11.6113 133.266 11.329 133.663 11.119C134.059 10.909 134.491 10.804 134.958 10.804C135.228 10.804 135.49 10.839 135.742 10.909L135.343 11.882C135.147 11.8213 134.955 11.791 134.769 11.791C134.391 11.791 134.043 11.8843 133.726 12.071C133.413 12.2577 133.163 12.5073 132.977 12.82C132.79 13.1327 132.697 13.4803 132.697 13.863V18H131.717ZM138.037 21.5H137.057V11H138.037V12.309C138.28 11.8657 138.611 11.5063 139.031 11.231C139.451 10.9557 139.951 10.818 140.529 10.818C141.038 10.818 141.514 10.9137 141.957 11.105C142.405 11.2963 142.797 11.5623 143.133 11.903C143.469 12.239 143.733 12.6287 143.924 13.072C144.116 13.5153 144.211 13.9913 144.211 14.5C144.211 15.0087 144.116 15.487 143.924 15.935C143.733 16.383 143.469 16.7773 143.133 17.118C142.797 17.454 142.405 17.7177 141.957 17.909C141.514 18.1003 141.038 18.196 140.529 18.196C139.951 18.196 139.451 18.0583 139.031 17.783C138.611 17.5077 138.28 17.1483 138.037 16.705V21.5ZM140.522 11.77C140.032 11.77 139.605 11.8937 139.241 12.141C138.882 12.3837 138.604 12.7103 138.408 13.121C138.212 13.5317 138.114 13.9913 138.114 14.5C138.114 14.9993 138.21 15.4567 138.401 15.872C138.597 16.2873 138.875 16.6187 139.234 16.866C139.598 17.1133 140.028 17.237 140.522 17.237C141.008 17.237 141.453 17.1157 141.859 16.873C142.27 16.6303 142.599 16.3037 142.846 15.893C143.094 15.4777 143.217 15.0133 143.217 14.5C143.217 14.0007 143.096 13.5457 142.853 13.135C142.611 12.7197 142.286 12.3883 141.88 12.141C141.474 11.8937 141.022 11.77 140.522 11.77ZM145.597 18V11H146.577V11.966C146.825 11.6113 147.147 11.329 147.543 11.119C147.94 10.909 148.372 10.804 148.838 10.804C149.109 10.804 149.37 10.839 149.622 10.909L149.223 11.882C149.027 11.8213 148.836 11.791 148.649 11.791C148.271 11.791 147.924 11.8843 147.606 12.071C147.294 12.2577 147.044 12.5073 146.857 12.82C146.671 13.1327 146.577 13.4803 146.577 13.863V18H145.597ZM150.705 11H151.685V18H150.705V11ZM151.202 9.775C151.044 9.775 150.908 9.72367 150.796 9.621C150.689 9.51367 150.635 9.38067 150.635 9.222C150.635 9.06333 150.689 8.93267 150.796 8.83C150.908 8.72267 151.044 8.669 151.202 8.669C151.356 8.669 151.487 8.72267 151.594 8.83C151.706 8.93267 151.762 9.06333 151.762 9.222C151.762 9.38067 151.709 9.51367 151.601 9.621C151.494 9.72367 151.361 9.775 151.202 9.775ZM155.68 18.133C155.297 18.1237 154.924 18.0537 154.56 17.923C154.196 17.7923 153.878 17.615 153.608 17.391C153.337 17.167 153.143 16.9127 153.027 16.628L153.874 16.264C153.948 16.446 154.086 16.614 154.287 16.768C154.492 16.9173 154.725 17.0387 154.987 17.132C155.248 17.2207 155.507 17.265 155.764 17.265C156.048 17.265 156.314 17.2183 156.562 17.125C156.809 17.0317 157.01 16.8987 157.164 16.726C157.322 16.5487 157.402 16.341 157.402 16.103C157.402 15.8463 157.318 15.6457 157.15 15.501C156.982 15.3517 156.769 15.235 156.513 15.151C156.256 15.0623 155.992 14.9783 155.722 14.899C155.227 14.7637 154.791 14.6143 154.413 14.451C154.035 14.2877 153.738 14.08 153.524 13.828C153.314 13.5713 153.209 13.2423 153.209 12.841C153.209 12.4163 153.328 12.05 153.566 11.742C153.808 11.4293 154.123 11.189 154.511 11.021C154.903 10.8483 155.32 10.762 155.764 10.762C156.333 10.762 156.851 10.8857 157.318 11.133C157.789 11.3803 158.13 11.7093 158.34 12.12L157.549 12.589C157.465 12.3977 157.332 12.232 157.15 12.092C156.968 11.952 156.76 11.8423 156.527 11.763C156.298 11.6837 156.065 11.6417 155.827 11.637C155.528 11.6323 155.25 11.6767 154.994 11.77C154.737 11.8587 154.529 11.9917 154.371 12.169C154.217 12.3463 154.14 12.5633 154.14 12.82C154.14 13.0767 154.217 13.2727 154.371 13.408C154.525 13.5387 154.732 13.646 154.994 13.73C155.26 13.8093 155.558 13.9027 155.89 14.01C156.314 14.1453 156.713 14.2993 157.087 14.472C157.46 14.6447 157.761 14.8593 157.99 15.116C158.218 15.3727 158.33 15.697 158.326 16.089C158.326 16.509 158.2 16.8753 157.948 17.188C157.696 17.5007 157.369 17.741 156.968 17.909C156.566 18.0723 156.137 18.147 155.68 18.133ZM162.758 18.182C162.114 18.182 161.526 18.0163 160.994 17.685C160.466 17.3537 160.044 16.9103 159.727 16.355C159.414 15.795 159.258 15.1767 159.258 14.5C159.258 13.9867 159.349 13.5083 159.531 13.065C159.713 12.617 159.962 12.225 160.28 11.889C160.602 11.5483 160.975 11.2823 161.4 11.091C161.824 10.8997 162.277 10.804 162.758 10.804C163.276 10.804 163.752 10.9067 164.186 11.112C164.624 11.3173 165 11.6043 165.313 11.973C165.63 12.3417 165.868 12.7733 166.027 13.268C166.19 13.7627 166.258 14.297 166.23 14.871H160.294C160.35 15.3143 160.49 15.711 160.714 16.061C160.942 16.411 161.232 16.6887 161.582 16.894C161.936 17.0947 162.328 17.1973 162.758 17.202C163.224 17.202 163.644 17.0807 164.018 16.838C164.396 16.5953 164.699 16.2617 164.928 15.837L165.922 16.068C165.642 16.6887 165.219 17.1973 164.655 17.594C164.09 17.986 163.458 18.182 162.758 18.182ZM160.266 14.08H165.243C165.21 13.646 165.077 13.2493 164.844 12.89C164.615 12.526 164.319 12.2367 163.955 12.022C163.591 11.8027 163.192 11.693 162.758 11.693C162.324 11.693 161.927 11.8003 161.568 12.015C161.208 12.225 160.914 12.512 160.686 12.876C160.457 13.2353 160.317 13.6367 160.266 14.08Z" fill="black"/>
</svg>
