<svg width="25" height="22" viewBox="0 0 25 22" fill="none" xmlns="http://www.w3.org/2000/svg">
<path d="M22.875 0C23.5654 0 24.125 0.559642 24.125 1.25V7.75098C24.1043 7.7506 24.0833 7.75 24.0625 7.75C22.2332 7.75014 20.75 9.23314 20.75 11.0625C20.75 12.8918 22.2332 14.3749 24.0625 14.375C24.0833 14.375 24.1043 14.3734 24.125 14.373V20.75C24.125 21.4404 23.5654 22 22.875 22H1.25C0.559644 22 0 21.4404 0 20.75V14.373C1.8006 14.3397 3.24998 12.8711 3.25 11.0625C3.25 9.25392 1.80062 7.78428 0 7.75098V1.25C0 0.559643 0.559644 2.25499e-06 1.25 0H22.875ZM7.85449 4.83789V17.2129H13.0059C13.6879 17.2129 14.3115 17.0621 14.876 16.7617C15.4406 16.4553 15.8913 16.0488 16.2266 15.542C16.5618 15.0293 16.7295 14.4605 16.7295 13.8359C16.7295 13.5591 16.711 13.2498 16.6758 12.9082C16.6405 12.5606 16.5639 12.2186 16.4463 11.8828C16.3346 11.5411 16.1649 11.2397 15.9355 10.9805C15.7062 10.7212 15.394 10.5445 15 10.4502C15.3058 10.3088 15.5414 10.1147 15.7061 9.86719C15.8707 9.61969 15.9851 9.35414 16.0498 9.07129C16.1145 8.7826 16.1465 8.50826 16.1465 8.24902C16.1464 7.55971 15.9846 6.95888 15.6611 6.44629C15.3436 5.93379 14.912 5.53865 14.3652 5.26172C13.8183 4.97886 13.2057 4.83789 12.5293 4.83789H7.85449ZM12.7236 11.6875C13.0294 11.6875 13.3058 11.7648 13.5527 11.918C13.8056 12.0712 14.0063 12.2711 14.1533 12.5186C14.3062 12.7602 14.3828 13.017 14.3828 13.2881C14.3828 13.6121 14.3062 13.901 14.1533 14.1543C14.0063 14.4077 13.8056 14.6076 13.5527 14.7549C13.3058 14.8962 13.0294 14.9668 12.7236 14.9668H10.501V11.6875H12.7236ZM12.2119 7.10059C12.5648 7.10059 12.8682 7.19715 13.1211 7.3916C13.3739 7.58602 13.4999 7.86622 13.5 8.23145C13.5 8.59073 13.3737 8.88836 13.1211 9.12402C12.8682 9.35974 12.5648 9.47852 12.2119 9.47852H10.501V7.10059H12.2119Z" fill="white"/>
</svg>
