<svg width="138" height="25" viewBox="0 0 138 25" fill="none" xmlns="http://www.w3.org/2000/svg">
<path d="M8.83208 7.552C10.3894 7.552 11.8081 7.93067 13.0881 8.688C14.3681 9.44533 15.3867 10.464 16.1441 11.744C16.9014 13.0133 17.2801 14.4213 17.2801 15.968C17.2801 17.1307 17.0614 18.224 16.6241 19.248C16.1867 20.272 15.5787 21.1733 14.8001 21.952C14.0321 22.72 13.1361 23.3227 12.1121 23.76C11.0987 24.1973 10.0054 24.416 8.83208 24.416C7.98941 24.416 7.23208 24.2347 6.56008 23.872C5.88808 23.5093 5.30141 23.0507 4.80008 22.496V24H7.82013e-05V-1.90735e-06H4.80008V9.472C5.30141 8.90667 5.88808 8.448 6.56008 8.096C7.23208 7.73333 7.98941 7.552 8.83208 7.552ZM8.76808 19.776C9.42941 19.776 10.0321 19.6053 10.5761 19.264C11.1201 18.9227 11.5521 18.464 11.8721 17.888C12.1921 17.312 12.3521 16.672 12.3521 15.968C12.3521 15.2747 12.1921 14.64 11.8721 14.064C11.5521 13.488 11.1201 13.0293 10.5761 12.688C10.0321 12.336 9.42941 12.16 8.76808 12.16C8.11741 12.16 7.52008 12.336 6.97608 12.688C6.44275 13.0293 6.01608 13.488 5.69608 14.064C5.37608 14.64 5.21608 15.2747 5.21608 15.968C5.21608 16.672 5.37608 17.312 5.69608 17.888C6.01608 18.464 6.44275 18.9227 6.97608 19.264C7.52008 19.6053 8.11741 19.776 8.76808 19.776ZM26.8838 24.416C25.4118 24.416 24.0678 24.0373 22.8518 23.28C21.6465 22.5227 20.6812 21.5093 19.9558 20.24C19.2412 18.96 18.8838 17.5467 18.8838 16C18.8838 14.8267 19.0918 13.7333 19.5078 12.72C19.9238 11.696 20.4945 10.8 21.2198 10.032C21.9558 9.25333 22.8092 8.64533 23.7798 8.208C24.7505 7.77067 25.7852 7.552 26.8838 7.552C28.3558 7.552 29.6945 7.93067 30.8998 8.688C32.1158 9.44533 33.0812 10.464 33.7958 11.744C34.5212 13.024 34.8838 14.4427 34.8838 16C34.8838 17.1627 34.6758 18.2507 34.2598 19.264C33.8438 20.2773 33.2678 21.1733 32.5318 21.952C31.8065 22.72 30.9585 23.3227 29.9878 23.76C29.0278 24.1973 27.9932 24.416 26.8838 24.416ZM26.8838 19.616C27.4918 19.616 28.0358 19.4507 28.5158 19.12C29.0065 18.7893 29.3905 18.352 29.6678 17.808C29.9452 17.2533 30.0838 16.6507 30.0838 16C30.0838 15.328 29.9345 14.7147 29.6358 14.16C29.3478 13.6053 28.9585 13.168 28.4678 12.848C27.9878 12.5173 27.4598 12.352 26.8838 12.352C26.2865 12.352 25.7425 12.5227 25.2518 12.864C24.7718 13.1947 24.3878 13.6373 24.0998 14.192C23.8225 14.7467 23.6838 15.3493 23.6838 16C23.6838 16.6827 23.8278 17.296 24.1158 17.84C24.4145 18.384 24.8038 18.816 25.2838 19.136C25.7745 19.456 26.3078 19.616 26.8838 19.616ZM52.3053 13.776V24H47.5053V15.12C47.5053 14.6187 47.3827 14.1653 47.1373 13.76C46.892 13.344 46.5667 13.0187 46.1613 12.784C45.756 12.5387 45.3027 12.416 44.8013 12.416C44.3 12.416 43.8413 12.5387 43.4253 12.784C43.02 13.0187 42.6947 13.344 42.4493 13.76C42.2147 14.1653 42.0973 14.6187 42.0973 15.12V24H37.2973L37.2813 8H42.0813L42.0973 9.008C42.6307 8.54933 43.2387 8.192 43.9213 7.936C44.604 7.68 45.324 7.552 46.0813 7.552C47.2333 7.552 48.2787 7.83467 49.2173 8.4C50.156 8.95467 50.9027 9.70133 51.4573 10.64C52.0227 11.5787 52.3053 12.624 52.3053 13.776ZM62.9881 1.6H68.3961L76.5241 24H71.4361L70.1561 20.48H61.2281L59.9481 24H54.8601L62.9881 1.6ZM62.9881 15.68H68.3961L65.6761 8.256L62.9881 15.68ZM79.0626 24V1.6H87.5106C88.7372 1.6 89.8466 1.91467 90.8386 2.544C91.8412 3.16267 92.6359 3.99467 93.2226 5.04C93.8092 6.07467 94.1026 7.21067 94.1026 8.448C94.1026 9.70667 93.7986 10.8533 93.1906 11.888C92.5932 12.9227 91.7932 13.7493 90.7906 14.368C89.7879 14.9867 88.6946 15.296 87.5106 15.296H83.8626V24H79.0626ZM83.8626 10.496H86.9666C87.3932 10.496 87.7826 10.3893 88.1346 10.176C88.4866 9.952 88.7692 9.65867 88.9826 9.296C89.1959 8.93333 89.3026 8.53333 89.3026 8.096C89.3026 7.65867 89.1959 7.25867 88.9826 6.896C88.7692 6.53333 88.4866 6.24533 88.1346 6.032C87.7826 5.808 87.3932 5.696 86.9666 5.696H83.8626V10.496ZM114.284 24H108.012L102.284 15.904L101.644 16.672V24H96.8438V1.6H101.644V9.216L108.012 1.6H114.284L105.42 12.16L114.284 24ZM123.551 1.6H128.959L137.087 24H131.999L130.719 20.48H121.791L120.511 24H115.423L123.551 1.6ZM123.551 15.68H128.959L126.239 8.256L123.551 15.68Z" fill="#212121"/>
</svg>

