<svg width="79" height="74" viewBox="0 0 79 74" fill="none" xmlns="http://www.w3.org/2000/svg">
<path d="M74.9062 0C77.1668 0 78.9998 1.8822 79 4.2041V26.0732C78.9319 26.0719 78.8633 26.0684 78.7949 26.0684C72.8045 26.0686 67.9484 31.0566 67.9482 37.21C67.9482 43.3634 72.8044 48.3523 78.7949 48.3525C78.8633 48.3525 78.9319 48.348 79 48.3467V69.7959C78.9998 72.1178 77.1668 74 74.9062 74H4.09375C1.83325 74 0.000234713 72.1178 0 69.7959V48.3467C5.89624 48.2346 10.6426 43.2933 10.6426 37.21C10.6424 31.1268 5.89616 26.1853 0 26.0732V4.2041C0.00023367 1.8822 1.83325 0 4.09375 0H74.9062ZM25.7188 16.2715V57.8965H42.5898C44.8238 57.8965 46.865 57.3907 48.7139 56.3799C50.5628 55.3492 52.037 53.982 53.1348 52.2773C54.2325 50.553 54.7812 48.64 54.7812 46.5391C54.7812 45.6075 54.723 44.5666 54.6074 43.417C54.4919 42.2475 54.2416 41.0976 53.8564 39.9678C53.4905 38.8183 52.9317 37.8076 52.1807 36.9355C51.4296 36.0635 50.4093 35.4685 49.1191 35.1514C50.1203 34.6757 50.8905 34.0217 51.4297 33.1895C51.9689 32.3571 52.3448 31.465 52.5566 30.5137C52.7685 29.5424 52.874 28.6202 52.874 27.748C52.874 25.429 52.3444 23.407 51.2852 21.6826C50.2452 19.9583 48.8301 18.6298 47.0391 17.6982C45.2481 16.7469 43.2449 16.2715 41.0303 16.2715H25.7188ZM41.665 39.3145C42.6665 39.3145 43.572 39.5716 44.3809 40.0869C45.2089 40.6022 45.8642 41.276 46.3457 42.1084C46.8464 42.921 47.0966 43.7836 47.0967 44.6953C47.0967 45.7855 46.8464 46.7571 46.3457 47.6094C45.8642 48.4617 45.209 49.1353 44.3809 49.6309C43.572 50.1066 42.6665 50.3447 41.665 50.3447H34.3857V39.3145H41.665ZM39.9902 23.8828C41.1456 23.8829 42.1378 24.2102 42.9658 24.8643C43.7937 25.5183 44.208 26.4598 44.208 27.6885C44.208 28.8974 43.7938 29.8986 42.9658 30.6914C42.1378 31.4842 41.1456 31.8808 39.9902 31.8809H34.3857V23.8828H39.9902Z" fill="rgba(255,255,255,0.6)"/>
</svg>
