<svg width="142" height="134" viewBox="0 0 142 134" fill="none" xmlns="http://www.w3.org/2000/svg">
<path d="M75.7153 68.0665C77.3392 68.3296 78.7395 68.9879 79.915 70.0408C81.1218 71.0989 82.0086 72.3696 82.5694 73.8539C83.1663 75.3104 83.3421 76.7821 83.1013 78.2687C82.8133 80.0467 82.153 81.5669 81.1158 82.8254C80.1097 84.0889 78.867 85.0147 77.3931 85.6052C75.9559 86.1682 74.4242 86.3191 72.8005 86.056L60.9971 84.1435L63.9119 66.154L75.7153 68.0665Z" fill="white" fill-opacity="0.14"/>
<path d="M77.0766 42.4581C78.9502 42.7617 80.473 43.556 81.643 44.84C82.8132 46.1244 83.2374 47.7696 82.9126 49.7739C82.5931 51.7457 81.6555 53.2683 80.1032 54.3437C78.5507 55.4192 76.8372 55.8048 74.9632 55.5011L65.8766 54.0288L67.9899 40.9858L77.0766 42.4581Z" fill="white" fill-opacity="0.14"/>
<path fill-rule="evenodd" clip-rule="evenodd" d="M140.013 12.6825C143.679 13.2765 146.154 16.8282 145.54 20.6153L139.761 56.28C139.651 56.26 139.541 56.237 139.43 56.219C129.715 54.6452 120.521 61.5048 118.895 71.5405C117.269 81.5763 123.827 90.988 133.541 92.5624C133.652 92.5803 133.765 92.5897 133.876 92.6055L128.207 127.588C127.594 131.375 124.124 133.964 120.458 133.37L5.62033 114.763C1.95425 114.169 -0.520283 110.617 0.0933399 106.83L5.7615 71.8474C15.353 73.2139 24.3548 66.4041 25.9623 56.4828C27.5699 46.5614 21.1796 37.2541 11.6472 35.522L17.4259 -0.14277C18.0395 -3.92991 21.509 -6.51846 25.175 -5.92445L140.013 12.6825ZM55.946 26.294L44.9465 94.1806L72.3066 98.6137C75.929 99.2005 79.3723 98.9137 82.6373 97.7512C85.908 96.556 88.6581 94.7112 90.8888 92.2195C93.1247 89.6956 94.5235 86.722 95.0788 83.2955C95.325 81.7761 95.5052 80.0622 95.6216 78.1568C95.7431 76.2196 95.6401 74.2777 95.3141 72.3343C95.0244 70.3642 94.3852 68.5702 93.3982 66.9512C92.4108 65.3316 90.9131 64.0922 88.9047 63.2359C90.6539 62.7233 92.0751 61.8583 93.1694 60.6429C94.2637 59.427 95.1082 58.0702 95.7032 56.5745C96.3034 55.0461 96.7219 53.5701 96.9524 52.1477C97.5651 48.3657 97.2401 44.9277 95.978 41.8371C94.7471 38.7517 92.8006 36.2144 90.1424 34.2245C87.4892 32.2024 84.3668 30.899 80.7753 30.317L55.946 26.294Z" fill="white" fill-opacity="0.14"/>
</svg>
