<svg width="24" height="24" viewBox="0 0 24 24" fill="none" xmlns="http://www.w3.org/2000/svg">
  <path d="M12.1992 12C14.9606 12 17.1992 9.76142 17.1992 7C17.1992 4.23858 14.9606 2 12.1992 2C9.43779 2 7.19922 4.23858 7.19922 7C7.19922 9.76142 9.43779 12 12.1992 12Z" stroke="black" stroke-width="1.5" stroke-linecap="round" stroke-linejoin="round"/>
  <path d="M21.5902 16.3501L16.5002 21.4401C15.9902 21.9401 14.5002 22.18 14.1502 21.84C14.0173 21.4469 13.9851 21.0266 14.0567 20.6178C14.1284 20.2089 14.3015 19.8247 14.5602 19.5001L19.6502 14.4001C19.915 14.1768 20.254 14.0614 20.6001 14.0765C20.9461 14.0916 21.2738 14.2362 21.518 14.4818C21.7623 14.7273 21.9053 15.0558 21.9187 15.4019C21.932 15.748 21.8148 16.0864 21.5902 16.3501Z" stroke="black" stroke-width="1.5" stroke-linecap="round" stroke-linejoin="round"/>
  <path d="M3 22C3.57038 20.0332 4.74795 18.2971 6.36438 17.0399C7.98081 15.7827 9.95335 15.0687 12 15" stroke="black" stroke-width="1.5" stroke-linecap="round" stroke-linejoin="round"/>
</svg>
