<?xml version="1.0" encoding="utf-8"?>
<!-- Generator: Adobe Illustrator 16.0.0, SVG Export Plug-In . SVG Version: 6.00 Build 0)  -->
<!DOCTYPE svg PUBLIC "-//W3C//DTD SVG 1.1//EN" "http://www.w3.org/Graphics/SVG/1.1/DTD/svg11.dtd">
<svg version="1.1" id="Layer_1" xmlns="http://www.w3.org/2000/svg" xmlns:xlink="http://www.w3.org/1999/xlink" x="0px" y="0px"
	 width="233.584px" height="221.167px" viewBox="0 0 233.584 221.167" enable-background="new 0 0 233.584 221.167"
	 xml:space="preserve">
<g>
	<path fill="#FF6E30" d="M173.765,135.723c-3.373,2.86-6.488,6.12-10.164,8.517c-16.496,10.748-34.236,17.872-54.361,17.15
		c-16.171-0.579-30.279-6.068-41.136-18.43c-2.588-2.945-5.254-4.02-9.084-3.737c-8.295,0.608-16.623,1.157-24.928,1.051
		c-2.8-0.036-5.573-2.129-8.358-3.282c1.973-2.434,3.483-6.099,6.013-7.047c5.505-2.063,11.512-2.828,17.349-3.943
		c2.211-0.422,4.518-0.344,7.53-0.545c-0.699-2.332-1.193-4.012-1.707-5.687c-5.489-17.892-6.792-35.616,1.972-52.989
		c11.277-22.352,43.677-33.102,66.075-21.888c14.009,7.014,20.411,23.245,15.144,39.302c-6.437,19.622-18.895,34.156-37.608,43.143
		c-7.062,3.391-7.333,4.92-1.058,9.731c9.681,7.427,20.024,13.104,32.733,8.455c7.965-2.914,14.547-7.905,19.585-14.899
		c2.97-4.123,4.856-3.688,7.56,0.742c0.605,0.993,2.695,1.361,4.152,1.5c3.184,0.305,6.401,0.278,9.605,0.387
		C173.304,134.078,173.534,134.9,173.765,135.723z M77.513,86.142c1.99,9.219,3.713,18.506,6.071,27.63
		c1.375,5.321,3.283,5.651,7.856,2.373c8.399-6.023,13.579-14.388,17.667-23.7c5.379-12.255,3.045-23.074-5.415-32.898
		c-6.376-7.406-13.261-7.034-18.928,1.013C79.412,68.16,78.736,76.955,77.513,86.142z"/>
	<path d="M582.229,87.414c10.693-6.482,20.806-7.089,31.128-2.823c6.196,2.561,10.965,6.847,14.411,12.578
		c8.472,14.084,6.889,33.877-3.586,45.229c-10.678,11.573-24.524,13.143-42.694,4.628c-0.928,4.302-4.018,4.722-7.773,4.505
		c-4.646-0.269-9.329-0.267-13.975-0.005c-4.099,0.229-5.532-1.259-5.497-5.414c0.163-18.975,0.066-37.95,0.066-56.926
		c0-8.822,0.111-17.646-0.043-26.466c-0.06-3.425,1.135-4.813,4.621-4.709c5.82,0.174,11.655,0.196,17.476-0.004
		c4.191-0.145,5.547,1.664,5.382,5.682c-0.233,5.649-0.077,11.317-0.021,16.976C581.742,82.437,581.979,84.208,582.229,87.414z
		 M605.741,117.264c-0.615-8.687-4.966-14.05-12.034-14.324c-7.129-0.277-12.086,5.273-12.382,13.865
		c-0.289,8.377,4.461,14.634,11.352,14.894c4.729,0.178,8.563-1.478,10.482-6.014C604.297,122.996,604.898,120.08,605.741,117.264z"
		/>
	<path d="M756.992,89.305c1.984-1.212,3.336-2.027,4.679-2.858c13.158-8.143,31.17-5.546,38.876,6.413
		c2.834,4.398,4.549,10.167,4.85,15.421c0.74,12.951,0.305,25.968,0.482,38.956c0.047,3.399-1.521,4.259-4.579,4.188
		c-5.993-0.137-11.996-0.178-17.985,0.021c-3.518,0.116-4.709-1.327-4.663-4.696c0.118-8.658,0.095-17.32,0.011-25.98
		c-0.026-2.65-0.268-5.324-0.699-7.939c-0.802-4.853-3.542-7.774-8.695-8.007c-4.83-0.219-8.97,2.363-10.332,6.985
		c-0.787,2.674-1.166,5.551-1.215,8.345c-0.149,8.658-0.188,17.324,0.01,25.98c0.087,3.783-1.021,5.494-5.072,5.328
		c-5.986-0.242-11.991-0.148-17.984-0.019c-3.101,0.067-4.556-0.94-4.542-4.274c0.081-19.819,0.074-39.641-0.007-59.459
		c-0.013-3.166,1.102-4.569,4.357-4.476c4.658,0.135,9.332,0.172,13.986-0.034C752.658,83.011,756.503,83.004,756.992,89.305z"/>
	<path d="M680.781,152.707c-15.601-0.432-28.098-5.1-36.049-18.19c-10.817-17.81-2.35-41.899,17.104-49.302
		c13.286-5.055,26.506-4.856,39.197,1.472c13.991,6.975,20.325,20.519,17.99,36.701c-1.968,13.639-13.974,25.483-28.782,28.224
		C686.822,152.244,683.319,152.421,680.781,152.707z M692.698,118.637c-0.354-0.237-0.705-0.476-1.059-0.714
		c-0.143-1.647-0.209-3.307-0.439-4.941c-0.763-5.384-4.437-9.181-9.604-10.012c-4.887-0.785-9.973,1.496-12.011,6.124
		c-2.681,6.087-2.728,12.333,1.171,18.043c3.495,5.118,11.435,6.497,15.781,2.14C689.336,126.473,690.694,122.234,692.698,118.637z"
		/>
	<path d="M878.579,87.677c-1.724,4.411-3.526,8.523-4.929,12.771c-1.221,3.688-3.066,3.277-6.385,2.557
		c-6.578-1.43-13.383-2.007-20.124-2.375c-1.497-0.082-3.122,2.164-4.688,3.338c1.413,1.171,2.673,3.027,4.268,3.385
		c5.188,1.16,10.547,1.541,15.749,2.648c7.866,1.673,15.224,4.539,18.229,12.927c3.474,9.695-0.832,19.537-10.71,24.652
		c-12.99,6.727-26.735,5.799-40.497,3.264c-3.565-0.656-7.119-1.829-10.389-3.377c-1.104-0.522-2.13-3.157-1.778-4.441
		c1.002-3.666,2.823-7.1,4.141-10.691c1.037-2.828,2.456-3.365,5.291-2.088c7.735,3.48,15.954,4.785,24.361,3.766
		c1.855-0.225,3.492-2.271,5.229-3.48c-1.616-1.146-3.095-2.929-4.878-3.32c-6.324-1.395-12.858-1.9-19.119-3.506
		c-10.057-2.578-15.053-8.414-15.595-17.076c-0.567-9.059,4.417-17.275,13.494-20.74c15.594-5.952,31.294-5.314,46.854,0.454
		C877.531,86.499,877.835,86.988,878.579,87.677z"/>
	<path d="M477.271,157.602c8.568,5.946,17.789,8.157,27.729,7.091c11.993-1.287,19.127-11.805,15.653-23.925
		c-1.763,1.063-3.4,1.983-4.968,3.013c-12.608,8.279-31.384,5.59-39.434-6.291c-2.582-3.814-4.307-8.851-4.604-13.443
		c-0.761-11.783-0.461-23.633-0.677-35.454c-0.051-2.817,1.183-3.684,3.88-3.837c10.502-0.6,10.45-0.676,10.518,9.854
		c0.052,8.16,0.023,16.329,0.417,24.476c0.507,10.473,5.741,16.076,14.958,16.627c10.9,0.652,19.114-4.854,20.188-14.975
		c1.032-9.729,0.847-19.618,0.684-29.429c-0.081-4.876,1.13-6.892,6.387-6.651c8.073,0.369,8.112,0.057,8.123,8.207
		c0.021,15.325,0.184,30.653-0.079,45.974c-0.1,5.779-0.596,11.695-1.998,17.277c-2.771,11.023-10.309,17.426-21.414,19.82
		c-11.982,2.584-23.53,1.027-34.713-3.555c-7.178-2.941-7.324-3.736-3.543-10.348C475.184,160.625,476.15,159.309,477.271,157.602z"
		/>
	<path d="M367.799,92.4c1.098-3.078,1.471-6.682,2.655-6.971c3.449-0.844,7.24-0.563,10.854-0.235
		c0.746,0.067,1.854,2.24,1.86,3.449c0.125,19.658,0.085,39.317,0.127,58.978c0.006,2.715-1.109,4.021-3.888,3.86
		c-1.494-0.086-3.011-0.142-4.495,0.011c-3.502,0.36-5.42-0.813-5.205-4.65c0.049-0.875-0.567-1.789-1.122-3.393
		c-9.688,8.361-20.434,10.739-32.339,7.547c-7.19-1.929-12.918-5.972-17.337-11.939c-8.626-11.65-8.31-31.646,0.936-43.092
		c5.971-7.392,14.043-11.05,23.398-11.902C352.45,83.223,360.513,86.256,367.799,92.4z M369.056,118.095
		c-0.027-13.016-8.414-21.846-20.809-21.911c-12.417-0.065-20.949,8.74-21.051,21.726c-0.104,13.108,8.626,22.232,21.167,22.127
		C360.804,139.93,369.083,131.152,369.056,118.095z"/>
	<path fill="#19BFB3" d="M314.12,34.488c-0.662-17.792,11.447-31.446,30.283-34.15c16.603-2.383,32.394,8.06,36.54,24.163
		c1.941,7.544,1.25,8.509-6.183,9.89c-13.419,2.493-26.819,5.09-40.212,7.724c-4.385,0.861-4.818,2.318-2.083,6.104
		c6.349,8.784,22.312,10.962,32.787,4.474c4.111-2.546,9.485-0.47,10.552,4.404c0.253,1.156-0.942,3.076-2.022,4.004
		c-7.118,6.114-15.784,7.581-24.759,7.382C328.395,68.023,314.873,54.741,314.12,34.488z M350.117,11.578
		c-12.566,0.049-20.543,6.905-21.796,17.353c-0.443,3.693,0.573,5.396,4.622,4.586c10.281-2.06,20.59-3.986,30.893-5.943
		c3.715-0.705,4.15-2.669,2.468-5.748C362.48,14.826,356.358,11.886,350.117,11.578z"/>
	<path d="M402.887,136.212c9.274,1.625,17.505,3.359,25.825,4.367c2.968,0.359,6.5-0.408,9.118-1.853
		c1.931-1.063,3.906-4.104,3.82-6.181c-0.083-2.016-2.399-4.976-4.384-5.67c-4.825-1.69-10.076-2.121-15.063-3.414
		c-4.646-1.205-9.524-2.215-13.68-4.457c-10.232-5.523-11.634-20.023-2.62-27.379c3.479-2.838,7.91-4.945,12.25-6.205
		c10.43-3.026,20.823-1.26,30.966,1.917c1.995,0.625,5.266,1.633,2.994,4.759c-1.894,2.604-0.565,9.18-7.398,6.458
		c-7.411-2.953-15.108-4.205-23.001-2.185c-3.869,0.991-7.315,2.707-7.332,7.555c-0.015,4.779,3.664,6.136,7.201,7.032
		c7.1,1.798,14.45,2.701,21.44,4.819c14.139,4.287,17.958,19.903,7.045,29.188c-3.525,2.998-8.343,5.052-12.902,6.15
		c-11.514,2.773-22.85,1-33.811-3.242c-3.61-1.396-5.62-3.465-2.762-7.437C401.741,138.843,402.489,136.96,402.887,136.212z"/>
	<path fill="#FF6E30" d="M173.64,127.983c-0.312-2.286,0.014-4.844-0.906-5.424c-1.154-0.728-3.33,0.188-5.066,0.354
		c-2.268,0.217-4.539,0.393-6.809,0.584c-0.226-0.494-0.449-0.986-0.674-1.48c5.469-7.376,10.934-14.756,16.412-22.125
		c1.387-1.864,2.602-3.942,4.313-5.443c0.999-0.875,2.858-1.138,4.271-1.006c0.656,0.061,1.614,1.688,1.663,2.646
		c0.188,3.642,2.845,3.345,4.535,2.299c3.938-2.436,6.863-0.639,10.722,1.653c-6.099,7.861-12.029,15.523-17.986,23.167
		c-0.915,1.174-1.955,2.25-2.924,3.383C178.058,130.253,178.06,130.255,173.64,127.983z"/>
</g>
</svg>
