<svg xmlns="http://www.w3.org/2000/svg" width="46" height="47" viewBox="0 0 46 47">
    <path d="M23 .853c8.284 0 15 6.716 15 15 0 .891-.078 1.764-.227 2.613C42.654 20.94 46 26.006 46 31.853c0 8.284-6.716 15-15 15a14.93 14.93 0 0 1-7.999-2.309c-2.316 1.462-5.059 2.309-8.001 2.309-8.284 0-15-6.716-15-15 0-5.847 3.346-10.913 8.227-13.387C8.078 17.617 8 16.744 8 15.853c0-8.284 6.716-15 15-15zM8.723 20.467l-.202.113C4.624 22.825 2 27.032 2 31.853c0 7.18 5.82 13 13 13a12.94 12.94 0 0 0 6.251-1.599C18.037 40.502 16 36.416 16 31.853c0-.891.078-1.764.227-2.613-3.537-1.793-6.268-4.947-7.504-8.773zm28.553-.001l-.06.185c-1.263 3.743-3.963 6.825-7.443 8.59.149.848.227 1.721.227 2.613 0 4.563-2.037 8.649-5.251 11.4 1.855 1.02 3.985 1.6 6.251 1.6 7.18 0 13-5.82 13-13 0-4.904-2.715-9.173-6.724-11.387zm-19.151 9.577l-.038.294c-.058.497-.087 1.003-.087 1.516 0 4.163 1.956 7.868 5 10.248 3.044-2.38 5-6.086 5-10.248 0-.614-.043-1.219-.125-1.81-1.528.525-3.168.81-4.875.81a14.98 14.98 0 0 1-4.875-.81zm4.876-8.437l-.132.103c-2.018 1.619-3.542 3.828-4.311 6.365a12.97 12.97 0 0 0 4.442.779c1.56 0 3.056-.275 4.442-.779-.785-2.592-2.359-4.84-4.441-6.468zM31 18.853a12.94 12.94 0 0 0-6.251 1.599c2.08 1.781 3.667 4.121 4.528 6.788 2.934-1.62 5.175-4.342 6.165-7.608A12.97 12.97 0 0 0 31 18.853zm-16 0c-1.56 0-3.056.275-4.442.779.99 3.266 3.231 5.988 6.165 7.609a15.01 15.01 0 0 1 4.528-6.788c-1.855-1.02-3.985-1.6-6.251-1.6zm8-16c-7.18 0-13 5.82-13 13 0 .614.043 1.219.125 1.81 1.528-.525 3.168-.81 4.875-.81a14.93 14.93 0 0 1 7.999 2.309c2.316-1.462 5.059-2.309 8.001-2.309a14.98 14.98 0 0 1 4.875.81 13.11 13.11 0 0 0 .125-1.81c0-7.18-5.82-13-13-13z"></path>
</svg>