<svg width="21" height="22" viewBox="0 0 21 22" fill="none" xmlns="http://www.w3.org/2000/svg">
    <path d="M9.9492 10.75C12.7106 10.75 14.9492 8.51142 14.9492 5.75C14.9492 2.98858 12.7106 0.75 9.9492 0.75C7.18779 0.75 4.94922 2.98858 4.94922 5.75C4.94922 8.51142 7.18779 10.75 9.9492 10.75Z" stroke="black" stroke-width="1.5" stroke-linecap="round" stroke-linejoin="round"/>
    <path d="M19.3402 15.1001L14.2502 20.1901C13.7402 20.6901 12.2502 20.93 11.9002 20.59C11.7673 20.1969 11.7351 19.7766 11.8067 19.3678C11.8784 18.9589 12.0515 18.5747 12.3102 18.2501L17.4002 13.1501C17.665 12.9268 18.004 12.8114 18.3501 12.8265C18.6961 12.8416 19.0238 12.9862 19.268 13.2318C19.5123 13.4773 19.6553 13.8058 19.6687 14.1519C19.682 14.498 19.5648 14.8364 19.3402 15.1001Z" stroke="black" stroke-width="1.5" stroke-linecap="round" stroke-linejoin="round"/>
    <path d="M0.75 20.75C1.32038 18.7832 2.49795 17.0471 4.11438 15.7899C5.73081 14.5327 7.70335 13.8187 9.75 13.75" stroke="black" stroke-width="1.5" stroke-linecap="round" stroke-linejoin="round"/>
</svg>
