<svg width="64" height="64" viewBox="0 0 64 64" fill="none" xmlns="http://www.w3.org/2000/svg">
<g filter="url(#filter0_dii_590_5934)">
<rect x="4" width="56" height="56" rx="28" fill="#F3F3F3" shape-rendering="crispEdges"/>
<rect x="4.5" y="0.5" width="55" height="55" rx="27.5" stroke="#EC2828" shape-rendering="crispEdges"/>
<circle opacity="0.14" cx="32.5" cy="28.5" r="9.5" fill="#EC2828"/>
<g opacity="0.14" filter="url(#filter1_d_590_5934)">
<circle cx="32.5" cy="28.5" r="19" stroke="#EC2828" stroke-dasharray="2 2" shape-rendering="crispEdges"/>
</g>
<path d="M26.7644 18.393L28.6 31.6998C28.5925 32.0433 28.6547 32.3847 28.7827 32.7035C28.9108 33.0223 29.102 33.3119 29.3449 33.5549C29.5879 33.7978 29.8775 33.989 30.1963 34.1171C30.5151 34.2451 30.8565 34.3073 31.2 34.2998H33.8C34.1435 34.3073 34.4849 34.2451 34.8037 34.1171C35.1225 33.989 35.4121 33.7978 35.6551 33.5549C35.898 33.3119 36.0892 33.0223 36.2173 32.7035C36.3453 32.3847 36.4074 32.0433 36.4 31.6998L38.2356 18.393C38.2356 14.7998 32.5 14.7998 32.5 14.7998C32.5 14.7998 26.7566 14.7998 26.7644 18.393ZM22.1 19.9998C18.2 19.9998 18.2 22.5998 18.2 22.5998L20.8 32.9998H24.7C25.2349 33.0008 25.7492 32.7939 26.1344 32.4228C26.5196 32.0517 26.7455 31.5454 26.7644 31.0108L24.7 19.9998H22.1ZM16.9 26.4998C15.8789 26.491 14.8933 26.8744 14.1466 27.571C13.4922 28.166 13.0833 28.9837 13 29.8642V35.5998H15.2932C15.6579 35.6351 16.026 35.5943 16.3742 35.4802C16.7224 35.3661 17.0432 35.1811 17.3163 34.9368C17.5894 34.6925 17.809 34.3942 17.9611 34.0609C18.1132 33.7275 18.1945 33.3662 18.2 32.9998L16.9 26.4998ZM42.9 19.9998C46.8 19.9998 46.8 22.5998 46.8 22.5998L44.2 32.9998H40.3C39.7651 33.0008 39.2508 32.7939 38.8656 32.4228C38.4804 32.0517 38.2545 31.5454 38.2356 31.0108L40.3 19.9998H42.9ZM48.1 26.4998C49.1211 26.491 50.1067 26.8744 50.8534 27.571C51.5078 28.166 51.9167 28.9837 52 29.8642V35.5998H49.7068C49.3421 35.6351 48.974 35.5943 48.6258 35.4802C48.2776 35.3661 47.9568 35.1811 47.6837 34.9368C47.4106 34.6925 47.191 34.3942 47.0389 34.0609C46.8868 33.7275 46.8055 33.3662 46.8 32.9998L48.1 26.4998Z" fill="#EC2828"/>
</g>
<defs>
<filter id="filter0_dii_590_5934" x="0" y="-4" width="64" height="68" filterUnits="userSpaceOnUse" color-interpolation-filters="sRGB">
<feFlood flood-opacity="0" result="BackgroundImageFix"/>
<feColorMatrix in="SourceAlpha" type="matrix" values="0 0 0 0 0 0 0 0 0 0 0 0 0 0 0 0 0 0 127 0" result="hardAlpha"/>
<feOffset dy="4"/>
<feGaussianBlur stdDeviation="2"/>
<feComposite in2="hardAlpha" operator="out"/>
<feColorMatrix type="matrix" values="0 0 0 0 0 0 0 0 0 0 0 0 0 0 0 0 0 0 0.25 0"/>
<feBlend mode="normal" in2="BackgroundImageFix" result="effect1_dropShadow_590_5934"/>
<feBlend mode="normal" in="SourceGraphic" in2="effect1_dropShadow_590_5934" result="shape"/>
<feColorMatrix in="SourceAlpha" type="matrix" values="0 0 0 0 0 0 0 0 0 0 0 0 0 0 0 0 0 0 127 0" result="hardAlpha"/>
<feOffset dy="4"/>
<feGaussianBlur stdDeviation="2"/>
<feComposite in2="hardAlpha" operator="arithmetic" k2="-1" k3="1"/>
<feColorMatrix type="matrix" values="0 0 0 0 0 0 0 0 0 0 0 0 0 0 0 0 0 0 0.13 0"/>
<feBlend mode="normal" in2="shape" result="effect2_innerShadow_590_5934"/>
<feColorMatrix in="SourceAlpha" type="matrix" values="0 0 0 0 0 0 0 0 0 0 0 0 0 0 0 0 0 0 127 0" result="hardAlpha"/>
<feOffset dy="-6"/>
<feGaussianBlur stdDeviation="2"/>
<feComposite in2="hardAlpha" operator="arithmetic" k2="-1" k3="1"/>
<feColorMatrix type="matrix" values="0 0 0 0 1 0 0 0 0 1 0 0 0 0 1 0 0 0 0.55 0"/>
<feBlend mode="normal" in2="effect2_innerShadow_590_5934" result="effect3_innerShadow_590_5934"/>
</filter>
<filter id="filter1_d_590_5934" x="9" y="9" width="47" height="47" filterUnits="userSpaceOnUse" color-interpolation-filters="sRGB">
<feFlood flood-opacity="0" result="BackgroundImageFix"/>
<feColorMatrix in="SourceAlpha" type="matrix" values="0 0 0 0 0 0 0 0 0 0 0 0 0 0 0 0 0 0 127 0" result="hardAlpha"/>
<feOffset dy="4"/>
<feGaussianBlur stdDeviation="2"/>
<feComposite in2="hardAlpha" operator="out"/>
<feColorMatrix type="matrix" values="0 0 0 0 0 0 0 0 0 0 0 0 0 0 0 0 0 0 0.25 0"/>
<feBlend mode="normal" in2="BackgroundImageFix" result="effect1_dropShadow_590_5934"/>
<feBlend mode="normal" in="SourceGraphic" in2="effect1_dropShadow_590_5934" result="shape"/>
</filter>
</defs>
</svg>

