<svg width="99" height="26" viewBox="0 0 99 26" fill="none" xmlns="http://www.w3.org/2000/svg">
<path d="M26.5488 0C27.3501 0 28 0.661664 28 1.47754V9.16016C27.976 9.1597 27.9519 9.15918 27.9277 9.15918C25.8044 9.15918 24.083 10.9121 24.083 13.0742C24.0832 15.2361 25.8046 16.9883 27.9277 16.9883C27.9519 16.9883 27.976 16.9868 28 16.9863V24.5225C28 25.3383 27.3501 26 26.5488 26H1.45117C0.64993 26 0 25.3383 0 24.5225V16.9863C2.08969 16.9469 3.77227 15.2114 3.77246 13.0742C3.77246 10.9368 2.08981 9.19954 0 9.16016V1.47754C0 0.661664 0.64993 0 1.45117 0H26.5488ZM9.11523 5.7168V20.3418H15.0947C15.8864 20.3418 16.6104 20.1646 17.2656 19.8096C17.9209 19.4474 18.4429 18.9661 18.832 18.3672C19.221 17.7614 19.416 17.0897 19.416 16.3516C19.416 16.0243 19.3954 15.6587 19.3545 15.2549C19.3135 14.8441 19.2253 14.4399 19.0889 14.043C18.9592 13.639 18.7604 13.284 18.4941 12.9775C18.2279 12.6711 17.8665 12.462 17.4092 12.3506C17.7641 12.1834 18.0374 11.9536 18.2285 11.6611C18.4196 11.3686 18.5528 11.055 18.6279 10.7207C18.703 10.3795 18.7402 10.0554 18.7402 9.74902C18.7402 8.93434 18.5521 8.22397 18.1768 7.61816C17.8082 7.01241 17.3066 6.54603 16.6719 6.21875C16.0371 5.88446 15.327 5.7168 14.542 5.7168H9.11523ZM14.7676 13.8135C15.1224 13.8135 15.4429 13.904 15.7295 14.085C16.0229 14.266 16.2551 14.5025 16.4258 14.7949C16.6033 15.0805 16.6924 15.3837 16.6924 15.7041C16.6923 16.087 16.6032 16.4281 16.4258 16.7275C16.2551 17.0269 16.023 17.2634 15.7295 17.4375C15.4429 17.6046 15.1224 17.6885 14.7676 17.6885H12.1875V13.8135H14.7676ZM14.1738 8.3916C14.5833 8.39164 14.935 8.50654 15.2285 8.73633C15.5218 8.96614 15.6689 9.29687 15.6689 9.72852C15.6689 10.1532 15.5218 10.5047 15.2285 10.7832C14.935 11.0617 14.5833 11.2011 14.1738 11.2012H12.1875V8.3916H14.1738Z" fill="#EC2828"/>
<path d="M40.9175 10.804C41.5988 10.804 42.2195 10.9697 42.7795 11.301C43.3395 11.6323 43.7851 12.078 44.1165 12.638C44.4478 13.1933 44.6135 13.8093 44.6135 14.486C44.6135 14.9947 44.5178 15.473 44.3265 15.921C44.1351 16.369 43.8691 16.7633 43.5285 17.104C43.1925 17.44 42.8005 17.7037 42.3525 17.895C41.9091 18.0863 41.4308 18.182 40.9175 18.182C40.5488 18.182 40.2175 18.1027 39.9235 17.944C39.6295 17.7853 39.3728 17.5847 39.1535 17.342V18H37.0535V7.5H39.1535V11.644C39.3728 11.3967 39.6295 11.196 39.9235 11.042C40.2175 10.8833 40.5488 10.804 40.9175 10.804ZM40.8895 16.152C41.1788 16.152 41.4425 16.0773 41.6805 15.928C41.9185 15.7787 42.1075 15.578 42.2475 15.326C42.3875 15.074 42.4575 14.794 42.4575 14.486C42.4575 14.1827 42.3875 13.905 42.2475 13.653C42.1075 13.401 41.9185 13.2003 41.6805 13.051C41.4425 12.897 41.1788 12.82 40.8895 12.82C40.6048 12.82 40.3435 12.897 40.1055 13.051C39.8721 13.2003 39.6855 13.401 39.5455 13.653C39.4055 13.905 39.3355 14.1827 39.3355 14.486C39.3355 14.794 39.4055 15.074 39.5455 15.326C39.6855 15.578 39.8721 15.7787 40.1055 15.928C40.3435 16.0773 40.6048 16.152 40.8895 16.152ZM49.0151 18.182C48.3711 18.182 47.7831 18.0163 47.2511 17.685C46.7238 17.3537 46.3014 16.9103 45.9841 16.355C45.6714 15.795 45.5151 15.1767 45.5151 14.5C45.5151 13.9867 45.6061 13.5083 45.7881 13.065C45.9701 12.617 46.2198 12.225 46.5371 11.889C46.8591 11.5483 47.2325 11.2823 47.6571 11.091C48.0818 10.8997 48.5345 10.804 49.0151 10.804C49.6591 10.804 50.2448 10.9697 50.7721 11.301C51.3041 11.6323 51.7265 12.078 52.0391 12.638C52.3565 13.198 52.5151 13.8187 52.5151 14.5C52.5151 15.0087 52.4241 15.4847 52.2421 15.928C52.0601 16.3713 51.8081 16.7633 51.4861 17.104C51.1688 17.44 50.7978 17.7037 50.3731 17.895C49.9531 18.0863 49.5005 18.182 49.0151 18.182ZM49.0151 16.082C49.2811 16.082 49.5191 16.0097 49.7291 15.865C49.9438 15.7203 50.1118 15.529 50.2331 15.291C50.3545 15.0483 50.4151 14.7847 50.4151 14.5C50.4151 14.206 50.3498 13.9377 50.2191 13.695C50.0931 13.4523 49.9228 13.261 49.7081 13.121C49.4981 12.9763 49.2671 12.904 49.0151 12.904C48.7538 12.904 48.5158 12.9787 48.3011 13.128C48.0911 13.2727 47.9231 13.4663 47.7971 13.709C47.6758 13.9517 47.6151 14.2153 47.6151 14.5C47.6151 14.7987 47.6781 15.067 47.8041 15.305C47.9348 15.543 48.1051 15.732 48.3151 15.872C48.5298 16.012 48.7631 16.082 49.0151 16.082ZM60.337 13.527V18H58.237V14.115C58.237 13.8957 58.1834 13.6973 58.076 13.52C57.9687 13.338 57.8264 13.1957 57.649 13.093C57.4717 12.9857 57.2734 12.932 57.054 12.932C56.8347 12.932 56.634 12.9857 56.452 13.093C56.2747 13.1957 56.1324 13.338 56.025 13.52C55.9224 13.6973 55.871 13.8957 55.871 14.115V18H53.771L53.764 11H55.864L55.871 11.441C56.1044 11.2403 56.3704 11.084 56.669 10.972C56.9677 10.86 57.2827 10.804 57.614 10.804C58.118 10.804 58.5754 10.9277 58.986 11.175C59.3967 11.4177 59.7234 11.7443 59.966 12.155C60.2134 12.5657 60.337 13.023 60.337 13.527ZM65.2107 8.2H67.5767L71.1327 18H68.9067L68.3467 16.46H64.4407L63.8807 18H61.6547L65.2107 8.2ZM65.2107 14.36H67.5767L66.3867 11.112L65.2107 14.36ZM72.4433 18V8.2H76.1393C76.676 8.2 77.1613 8.33767 77.5953 8.613C78.034 8.88367 78.3817 9.24767 78.6383 9.705C78.895 10.1577 79.0233 10.6547 79.0233 11.196C79.0233 11.7467 78.8903 12.2483 78.6243 12.701C78.363 13.1537 78.013 13.5153 77.5743 13.786C77.1357 14.0567 76.6573 14.192 76.1393 14.192H74.5433V18H72.4433ZM74.5433 12.092H75.9013C76.088 12.092 76.2583 12.0453 76.4123 11.952C76.5663 11.854 76.69 11.7257 76.7833 11.567C76.8767 11.4083 76.9233 11.2333 76.9233 11.042C76.9233 10.8507 76.8767 10.6757 76.7833 10.517C76.69 10.3583 76.5663 10.2323 76.4123 10.139C76.2583 10.041 76.088 9.992 75.9013 9.992H74.5433V12.092ZM88.0526 18H85.3086L82.8026 14.458L82.5226 14.794V18H80.4226V8.2H82.5226V11.532L85.3086 8.2H88.0526L84.1746 12.82L88.0526 18ZM92.3068 8.2H94.6728L98.2288 18H96.0028L95.4428 16.46H91.5368L90.9768 18H88.7508L92.3068 8.2ZM92.3068 14.36H94.6728L93.4828 11.112L92.3068 14.36Z" fill="black"/>
</svg>
