<svg width="42" height="42" viewBox="0 0 42 42" fill="none" xmlns="http://www.w3.org/2000/svg">
    <g filter="url(#filter0_d_0_1)">
        <circle cx="20.8889" cy="16.8889" r="16.8889" fill="#EC2828"/>
        <circle cx="20.8889" cy="16.8889" r="16.3889" stroke="white"/>
    </g>
    <g clip-path="url(#clip0_0_1)">
        <path d="M23.2065 7.98389C25.4907 7.68708 27.6114 8.19648 28.7681 9.35303C29.5417 10.1266 29.9185 11.0217 29.8999 12.0005C29.8819 12.9366 29.5041 13.8516 28.9761 14.7144C28.2714 15.8656 27.1937 17.0847 25.9819 18.3413L25.3091 19.0298L24.6206 19.7231L23.3511 20.9907L22.6108 21.7202C21.2594 23.0375 19.9481 24.2209 18.7144 24.9761C17.8516 25.5041 16.9366 25.8819 16.0005 25.8999C15.0217 25.9185 14.1266 25.5417 13.353 24.7681C12.1965 23.6114 11.6871 21.4907 11.9839 19.2065C12.2742 16.9722 13.3422 14.4445 15.522 12.1411L15.8442 11.812C18.2261 9.43689 20.8755 8.2868 23.2065 7.98389ZM27.4956 10.6265C26.8847 10.0155 25.4217 9.51148 23.439 9.76904C23.0037 9.8256 22.5494 9.91892 22.0835 10.0532L21.9331 10.0962L22.0356 10.2144C22.3086 10.5295 22.665 10.7545 23.1128 10.9038C23.5842 11.0609 23.8391 11.5701 23.6821 12.0415C23.525 12.513 23.0151 12.768 22.5435 12.6108C21.555 12.2812 20.796 11.6896 20.2896 10.8647L20.2407 10.7856L20.1577 10.8286C19.3139 11.2684 18.4583 11.8515 17.6235 12.604L17.5591 12.6626L17.6069 12.7339C17.7692 12.9771 17.9869 13.2447 18.2495 13.5073C18.6786 13.9365 19.1227 14.2479 19.4556 14.3921L19.4595 14.394L19.5728 14.438L19.5776 14.439C20.0492 14.5962 20.3041 15.1062 20.147 15.5776C19.9898 16.0491 19.4798 16.3041 19.0083 16.147C18.2913 15.908 17.5559 15.3586 16.9771 14.7798C16.7647 14.5674 16.5551 14.3336 16.3638 14.0864L16.2876 13.9868L16.2075 14.0835C15.5153 14.9257 14.9882 15.7831 14.6001 16.6226L14.5806 16.6636L14.6001 16.7056C14.8835 17.3364 15.3511 17.7439 16.0415 17.9741C16.513 18.1313 16.768 18.6413 16.6108 19.1128C16.4537 19.5843 15.9446 19.8391 15.4731 19.6821C14.911 19.4947 14.4229 19.2231 14.0142 18.8726L13.8833 18.7593L13.8511 18.9292C13.8183 19.1014 13.7908 19.2718 13.769 19.439C13.5115 21.4217 14.0155 22.8847 14.6265 23.4956C15.0902 23.9592 15.5252 24.1085 15.9653 24.1001C16.4483 24.0909 17.0428 23.8891 17.7749 23.4409C18.6159 22.9261 19.5194 22.1653 20.4995 21.2485L20.9243 20.8462L21.5601 20.23V20.229L22.5552 19.2427L22.5562 19.2417L23.9077 17.8862H23.9087L24.5425 17.2397C25.7755 15.9692 26.7993 14.8231 27.4409 13.7749C27.8891 13.0428 28.0909 12.4483 28.1001 11.9653C28.1085 11.5252 27.9592 11.0902 27.4956 10.6265Z" fill="white" stroke="#EC2828" stroke-width="0.2"/>
    </g>
    <defs>
        <filter id="filter0_d_0_1" x="0" y="0" width="41.7778" height="41.7778" filterUnits="userSpaceOnUse" color-interpolation-filters="sRGB">
            <feFlood flood-opacity="0" result="BackgroundImageFix"/>
            <feColorMatrix in="SourceAlpha" type="matrix" values="0 0 0 0 0 0 0 0 0 0 0 0 0 0 0 0 0 0 127 0" result="hardAlpha"/>
            <feOffset dy="4"/>
            <feGaussianBlur stdDeviation="2"/>
            <feComposite in2="hardAlpha" operator="out"/>
            <feColorMatrix type="matrix" values="0 0 0 0 0 0 0 0 0 0 0 0 0 0 0 0 0 0 0.25 0"/>
            <feBlend mode="normal" in2="BackgroundImageFix" result="effect1_dropShadow_0_1"/>
            <feBlend mode="normal" in="SourceGraphic" in2="effect1_dropShadow_0_1" result="shape"/>
        </filter>
        <clipPath id="clip0_0_1">
            <rect width="24" height="24" fill="white" transform="translate(9 5)"/>
        </clipPath>
    </defs>
</svg>
