<svg width="42" height="42" viewBox="0 0 42 42" fill="none" xmlns="http://www.w3.org/2000/svg">
    <g filter="url(#filter0_d_0_1)">
        <circle cx="20.8889" cy="16.8889" r="16.8889" fill="#EC2828"/>
        <circle cx="20.8889" cy="16.8889" r="16.3889" stroke="white"/>
    </g>
    <path d="M21.0199 7C19.3198 7 17.8897 8.19391 17.5172 9.78438C17.0785 9.19285 16.3813 8.80234 15.5941 8.80234C14.2758 8.80234 13.1941 9.88396 13.1941 11.2023C13.1941 11.9153 13.5165 12.5519 14.0156 12.993H12.6C12.2686 12.993 12 13.2616 12 13.593V24.393C12 24.7243 12.2686 24.9929 12.6 24.993H25.2C25.5314 24.9929 25.8 24.7243 25.8 24.393V22.5941H26.5125C26.7633 23.288 27.4246 23.793 28.2 23.793H29.4C29.7314 23.7929 30 23.5243 30 23.193V15.393C30 15.0616 29.7314 14.793 29.4 14.793H28.2C27.4233 14.793 26.7611 15.2997 26.5113 15.9953H25.8V13.593C25.8 13.2616 25.5314 12.993 25.2 12.993H23.6988C24.2697 12.3563 24.6211 11.5184 24.6211 10.6C24.6211 8.61888 23.001 7 21.0199 7ZM21.0199 8.2C22.3525 8.2 23.4211 9.26742 23.4211 10.6C23.4211 11.9049 22.3946 12.9498 21.1008 12.993H20.9391C19.6454 12.9497 18.6199 11.9048 18.6199 10.6C18.6199 9.26742 19.6873 8.2 21.0199 8.2ZM15.5941 10.0023C16.264 10.0023 16.7941 10.5325 16.7941 11.2023C16.7941 11.8722 16.264 12.4035 15.5941 12.4035C14.9243 12.4035 14.3941 11.8722 14.3941 11.2023C14.3941 10.5325 14.9243 10.0023 15.5941 10.0023ZM17.7867 12.1691C17.9337 12.4694 18.12 12.7464 18.341 12.993H17.1727C17.4312 12.7645 17.6448 12.4878 17.7867 12.1691ZM13.2 14.193H24.6V23.793H13.2V14.193ZM28.2 15.993H28.8V22.593H28.2C27.8606 22.593 27.6074 22.34 27.6023 22.0023V16.5836C27.6074 16.2459 27.8606 15.993 28.2 15.993ZM25.8 17.1906H26.4V21.3941H25.8V17.1906Z" fill="white"/>
    <path d="M15.0009 15.3926C14.8417 15.3926 14.6891 15.4558 14.5765 15.5684C14.464 15.6809 14.4008 15.8336 14.4008 15.9927C14.4008 16.1519 14.464 16.3045 14.5765 16.4171C14.6891 16.5296 14.8417 16.5929 15.0009 16.5929H16.2012C16.3604 16.5929 16.513 16.5296 16.6256 16.4171C16.7381 16.3045 16.8014 16.1519 16.8014 15.9927C16.8014 15.8336 16.7381 15.6809 16.6256 15.5684C16.513 15.4558 16.3604 15.3926 16.2012 15.3926H15.0009Z" fill="white"/>
    <defs>
        <filter id="filter0_d_0_1" x="0" y="0" width="41.7778" height="41.7778" filterUnits="userSpaceOnUse" color-interpolation-filters="sRGB">
            <feFlood flood-opacity="0" result="BackgroundImageFix"/>
            <feColorMatrix in="SourceAlpha" type="matrix" values="0 0 0 0 0 0 0 0 0 0 0 0 0 0 0 0 0 0 127 0" result="hardAlpha"/>
            <feOffset dy="4"/>
            <feGaussianBlur stdDeviation="2"/>
            <feComposite in2="hardAlpha" operator="out"/>
            <feColorMatrix type="matrix" values="0 0 0 0 0 0 0 0 0 0 0 0 0 0 0 0 0 0 0.25 0"/>
            <feBlend mode="normal" in2="BackgroundImageFix" result="effect1_dropShadow_0_1"/>
            <feBlend mode="normal" in="SourceGraphic" in2="effect1_dropShadow_0_1" result="shape"/>
        </filter>
    </defs>
</svg>
