<svg width="42" height="42" viewBox="0 0 42 42" fill="none" xmlns="http://www.w3.org/2000/svg">
    <g filter="url(#filter0_d_0_1)">
        <circle cx="20.8889" cy="16.8889" r="16.8889" fill="#EC2828"/>
        <circle cx="20.8889" cy="16.8889" r="16.3889" stroke="white"/>
    </g>
    <path fill-rule="evenodd" clip-rule="evenodd" d="M11.6736 14.9572C11.5597 15.5372 11.5 16.1366 11.5 16.75C11.5 16.9764 11.5081 17.201 11.5241 17.4233C11.5452 17.4404 11.5673 17.4583 11.5904 17.4768C11.8106 17.6528 12.1209 17.8869 12.4819 18.1198C13.2394 18.6084 14.0818 19 14.75 19C15.1856 19 15.7138 18.8313 16.268 18.5523C16.6047 18.3827 16.9265 18.185 17.2107 17.9923C17.0742 17.6035 17 17.1854 17 16.75C17 14.6789 18.6789 13 20.75 13C22.8211 13 24.5 14.6789 24.5 16.75C24.5 17.521 24.2673 18.2377 23.8683 18.8336C24.0911 18.9396 24.3213 19 24.5553 19C25.0183 19 25.237 18.7808 25.6718 18.266C25.6823 18.2536 25.6929 18.241 25.7037 18.2282C26.0651 17.7995 26.5929 17.1735 27.5298 17.03C27.4014 16.9908 27.282 16.9167 27.1868 16.8086C26.913 16.4977 26.9431 16.0238 27.254 15.75L28.932 14.2722C29.1264 14.101 29.3845 14.0486 29.6176 14.1094C29.3864 13.3319 29.0558 12.5973 28.6405 11.9202L28.2803 12.2803C27.9874 12.5732 27.5126 12.5732 27.2197 12.2803C26.9268 11.9874 26.9268 11.5126 27.2197 11.2197L27.7436 10.6957C26.0476 8.73821 23.5434 7.5 20.75 7.5C18.9799 7.5 17.326 7.99718 15.9202 8.85952L16.2803 9.21967C16.5732 9.51256 16.5732 9.98744 16.2803 10.2803C15.9874 10.5732 15.5126 10.5732 15.2197 10.2803L14.6957 9.75637C13.6905 10.6274 12.8749 11.7115 12.3193 12.9385C12.7299 12.9194 13.08 13.2347 13.1029 13.646L13.1816 15.058C13.2046 15.4716 12.888 15.8255 12.4744 15.8485C12.0609 15.8716 11.7069 15.555 11.6839 15.1414L11.6736 14.9572ZM29.9043 15.4147L28.2453 16.8757C28.1842 16.9295 28.1168 16.9716 28.0458 17.0021C28.8016 17.0309 29.4433 17.3491 29.9487 17.7298C29.9826 17.4078 30 17.0809 30 16.75C30 16.2965 29.9674 15.8507 29.9043 15.4147ZM29.6007 19.4469C29.1593 18.9484 28.5694 18.5 27.9342 18.5C27.4713 18.5 27.2526 18.7192 26.8177 19.234C26.8073 19.2464 26.7966 19.259 26.7859 19.2718C26.3754 19.7586 25.7505 20.5 24.5553 20.5C23.8481 20.5 23.24 20.2431 22.7534 19.9206C22.1738 20.2875 21.4867 20.5 20.75 20.5C19.6543 20.5 18.6684 20.0301 17.9827 19.2808C17.6722 19.4882 17.3188 19.7026 16.9425 19.892C16.3013 20.2149 15.5264 20.5 14.75 20.5C13.7374 20.5 12.7035 20.0123 11.9292 19.5432C13.1135 23.2866 16.6149 26 20.75 26C24.9205 26 28.4463 23.24 29.6007 19.4469ZM10 16.75C10 10.8129 14.8129 6 20.75 6C26.6871 6 31.5 10.8129 31.5 16.75C31.5 22.6871 26.6871 27.5 20.75 27.5C14.8129 27.5 10 22.6871 10 16.75ZM19.2197 8.21967C19.5126 7.92678 19.9874 7.92678 20.2803 8.21967L21.2803 9.21967C21.5732 9.51256 21.5732 9.98744 21.2803 10.2803C20.9874 10.5732 20.5126 10.5732 20.2197 10.2803L19.2197 9.28033C18.9268 8.98744 18.9268 8.51256 19.2197 8.21967ZM25.2 9.15C25.5314 9.39853 25.5985 9.86863 25.35 10.2L23.85 12.2C23.6015 12.5314 23.1314 12.5985 22.8 12.35C22.4686 12.1015 22.4015 11.6314 22.65 11.3L24.15 9.3C24.3985 8.96863 24.8686 8.90147 25.2 9.15ZM19.9744 11.5559C20.0817 11.956 19.8442 12.3672 19.4441 12.4744L18.0781 12.8405C17.678 12.9477 17.2667 12.7102 17.1595 12.3101C17.0523 11.91 17.2898 11.4988 17.6899 11.3916L19.0559 11.0256C19.456 10.9183 19.8672 11.1558 19.9744 11.5559ZM14.6469 11.9236C15.0239 11.7522 15.4686 11.919 15.64 12.2961L16.2252 13.5835C16.3966 13.9606 16.2299 14.4052 15.8528 14.5766C15.4757 14.748 15.0311 14.5813 14.8597 14.2042L14.2744 12.9168C14.103 12.5397 14.2698 12.095 14.6469 11.9236ZM25.3646 12.9773C25.7784 12.9579 26.1296 13.2775 26.149 13.6913L26.2154 15.1039C26.2349 15.5177 25.9152 15.8689 25.5015 15.8883C25.0877 15.9078 24.7365 15.5881 24.7171 15.1744L24.6507 13.7617C24.6312 13.348 24.9509 12.9968 25.3646 12.9773ZM20.75 14.5C19.5074 14.5 18.5 15.5074 18.5 16.75C18.5 17.9926 19.5074 19 20.75 19C21.9926 19 23 17.9926 23 16.75C23 15.5074 21.9926 14.5 20.75 14.5ZM15.6931 15.6449C16.0273 15.8896 16.1 16.3589 15.8554 16.6931L15.0201 17.8343C14.7755 18.1686 14.3062 18.2412 13.972 17.9966C13.6377 17.752 13.565 17.2827 13.8097 16.9484L14.6449 15.8072C14.8895 15.473 15.3588 15.4003 15.6931 15.6449Z" fill="white"/>
    <defs>
        <filter id="filter0_d_0_1" x="0" y="0" width="41.7778" height="41.7778" filterUnits="userSpaceOnUse" color-interpolation-filters="sRGB">
            <feFlood flood-opacity="0" result="BackgroundImageFix"/>
            <feColorMatrix in="SourceAlpha" type="matrix" values="0 0 0 0 0 0 0 0 0 0 0 0 0 0 0 0 0 0 127 0" result="hardAlpha"/>
            <feOffset dy="4"/>
            <feGaussianBlur stdDeviation="2"/>
            <feComposite in2="hardAlpha" operator="out"/>
            <feColorMatrix type="matrix" values="0 0 0 0 0 0 0 0 0 0 0 0 0 0 0 0 0 0 0.25 0"/>
            <feBlend mode="normal" in2="BackgroundImageFix" result="effect1_dropShadow_0_1"/>
            <feBlend mode="normal" in="SourceGraphic" in2="effect1_dropShadow_0_1" result="shape"/>
        </filter>
    </defs>
</svg>
