<svg width="42" height="42" viewBox="0 0 42 42" fill="none" xmlns="http://www.w3.org/2000/svg">
    <g filter="url(#filter0_d_0_1)">
        <circle cx="20.8889" cy="16.8889" r="16.8889" fill="#EC2828"/>
        <circle cx="20.8889" cy="16.8889" r="16.3889" stroke="white"/>
    </g>
    <g clip-path="url(#clip0_0_1)">
        <path d="M23.6667 7H17.3333C15.0235 7 13.0656 8.78155 11.962 11.4339C11.9611 11.436 11.9604 11.438 11.9595 11.4401C11.3485 12.911 11 14.6492 11 16.5C11 21.6922 13.7413 26 17.3333 26H23.6667C27.2587 26 30 21.6922 30 16.5C30 11.3078 27.2587 7 23.6667 7ZM14.4882 22.8049C14.0871 22.3 13.7328 21.6919 13.4418 21.0028L13.9013 21.191C14.0608 21.2563 14.2373 21.2677 14.4039 21.2237L17.8563 20.3097C17.8564 20.3099 17.8564 20.3102 17.8565 20.3104C17.8727 20.3667 17.8894 20.4227 17.9063 20.4785C17.9142 20.5045 17.922 20.5306 17.9301 20.5565C17.9515 20.6254 17.9734 20.6938 17.9959 20.7618C17.9995 20.7727 18.0029 20.7837 18.0066 20.7946C18.0328 20.8731 18.0598 20.9509 18.0875 21.0281C18.0955 21.0504 18.1037 21.0724 18.1118 21.0945C18.1321 21.1502 18.1526 21.2055 18.1736 21.2605C18.1836 21.2865 18.1936 21.3125 18.2037 21.3383C18.2245 21.3916 18.2457 21.4445 18.2672 21.4972C18.2767 21.5203 18.286 21.5436 18.2956 21.5666C18.3262 21.6402 18.3573 21.7133 18.3892 21.7856C18.3895 21.7862 18.3897 21.7868 18.39 21.7874C18.4046 21.8203 18.4196 21.8527 18.4345 21.8853L14.4882 22.8049ZM14.2242 10.5521L15.1902 11.5181C15.3774 11.7053 15.6458 11.7866 15.9053 11.7346L18.3783 11.2399C18.3502 11.3039 18.3226 11.3684 18.2956 11.4335C18.286 11.4564 18.2767 11.4796 18.2673 11.5027C18.2458 11.5554 18.2246 11.6084 18.2037 11.6617C18.1936 11.6876 18.1836 11.7134 18.1737 11.7395C18.1526 11.7945 18.1321 11.8499 18.1118 11.9056C18.1037 11.9277 18.0955 11.9496 18.0875 11.9719C18.0599 12.0491 18.0328 12.127 18.0066 12.2055C18.003 12.2163 17.9996 12.2273 17.996 12.2381C17.9735 12.3062 17.9515 12.3746 17.9301 12.4436C17.922 12.4695 17.9142 12.4956 17.9063 12.5216C17.8918 12.5692 17.8775 12.617 17.8635 12.665L15.2219 13.255L13.6269 11.5866C13.8074 11.2123 14.0077 10.8664 14.2242 10.5521ZM14.3863 14.6721C14.5779 14.8725 14.8605 14.9581 15.1311 14.8976L17.4909 14.3705C17.4898 14.3777 17.4889 14.385 17.4878 14.3921C17.4844 14.4149 17.4814 14.4378 17.4781 14.4606C17.4686 14.5264 17.4595 14.5924 17.4509 14.6587C17.447 14.6889 17.4433 14.7192 17.4396 14.7495C17.4321 14.8114 17.4249 14.8735 17.4181 14.9358C17.4149 14.9649 17.4117 14.9939 17.4087 15.023C17.4007 15.1006 17.3934 15.1785 17.3866 15.2567C17.3856 15.2692 17.3843 15.2815 17.3833 15.2939C17.3757 15.3843 17.3692 15.4752 17.3633 15.5663C17.3619 15.589 17.3607 15.6119 17.3593 15.6348L14.4168 16.4074L12.7193 14.6318C12.7911 14.1467 12.8899 13.6798 13.013 13.2356L14.3863 14.6721ZM13.5946 17.8387C13.7934 18.0468 14.0895 18.1305 14.3679 18.0574L17.3541 17.2732C17.3555 17.3003 17.3572 17.3273 17.3587 17.3543C17.3603 17.3808 17.3616 17.4073 17.3633 17.4337C17.3692 17.5248 17.3757 17.6156 17.3833 17.706C17.3843 17.7185 17.3856 17.7308 17.3866 17.7432C17.3934 17.8214 17.4007 17.8994 17.4087 17.977C17.4117 18.0061 17.4149 18.0351 17.4181 18.0642C17.4249 18.1265 17.432 18.1886 17.4396 18.2505C17.4433 18.2808 17.447 18.311 17.4509 18.3413C17.4595 18.4075 17.4686 18.4736 17.4781 18.5394C17.4813 18.5622 17.4844 18.5851 17.4878 18.6079C17.4955 18.6598 17.5038 18.7114 17.5121 18.763L14.2555 19.6251L12.8392 19.0451C12.6916 18.3339 12.6039 17.5753 12.5868 16.7846L13.5946 17.8387ZM20.1371 8.58335C20.1299 8.59058 20.1229 8.59823 20.1157 8.6055C20.0792 8.64235 20.0431 8.67983 20.0072 8.71776C19.9949 8.73067 19.9825 8.74332 19.9703 8.75639C19.9229 8.8073 19.8759 8.85914 19.8294 8.91195C19.8195 8.92327 19.8098 8.93492 19.7999 8.94631C19.7633 8.98851 19.7269 9.03118 19.6909 9.07453C19.6758 9.09278 19.6608 9.1113 19.6457 9.12978C19.6144 9.16826 19.5834 9.20715 19.5526 9.24653C19.5378 9.26538 19.523 9.28416 19.5084 9.30323C19.4799 9.34041 19.4516 9.37812 19.4236 9.41604L16.0102 10.099L15.2882 9.377C15.9152 8.86797 16.6117 8.58342 17.3333 8.58342H20.1371V8.58335ZM20.1371 24.4167H17.3333C16.8705 24.4167 16.4181 24.2993 15.9877 24.0813L19.0961 23.3569C19.1429 23.346 19.1878 23.3309 19.2305 23.3125C19.2372 23.3224 19.244 23.3325 19.2508 23.3424C19.2924 23.403 19.3346 23.4629 19.3773 23.5218C19.3864 23.5342 19.3956 23.5463 19.4047 23.5587C19.4389 23.6053 19.4734 23.6513 19.5083 23.6968C19.523 23.7159 19.5378 23.7348 19.5526 23.7537C19.5834 23.793 19.6143 23.8318 19.6456 23.8702C19.6607 23.8887 19.6758 23.9073 19.691 23.9256C19.7269 23.9689 19.7632 24.0115 19.7997 24.0536C19.8097 24.065 19.8195 24.0768 19.8295 24.0882C19.8759 24.141 19.9228 24.1927 19.9703 24.2437C19.9825 24.2568 19.995 24.2695 20.0073 24.2825C20.0431 24.3203 20.0792 24.3578 20.1156 24.3945C20.1229 24.4017 20.1299 24.4094 20.1371 24.4167ZM23.6667 24.4167C21.1376 24.4167 18.9167 20.9266 18.9167 16.5C18.9167 15.4537 19.0409 14.4598 19.2638 13.5518C19.2683 13.5361 19.2723 13.5202 19.2758 13.5042C19.5548 12.3891 19.9829 11.4053 20.5134 10.6165C20.5332 10.5909 20.5517 10.5642 20.5684 10.5364C21.4138 9.31652 22.5078 8.58335 23.6667 8.58335C26.1958 8.58335 28.4167 12.0734 28.4167 16.5C28.4167 20.9266 26.1958 24.4167 23.6667 24.4167Z" fill="white"/>
        <path d="M23.6667 10.1666C21.7343 10.1666 20.5 13.0467 20.5 16.5C20.5 19.9532 21.7343 22.8333 23.6667 22.8333C25.5991 22.8333 26.8333 19.9533 26.8333 16.5C26.8333 13.0467 25.5991 10.1666 23.6667 10.1666ZM24.6184 20.1067C24.2869 20.8803 23.9123 21.25 23.6667 21.25C23.421 21.25 23.0464 20.8803 22.7149 20.1067C22.3173 19.179 22.0833 17.888 22.0833 16.5C22.0833 15.112 22.3173 13.8209 22.7149 12.8933C23.0464 12.1197 23.4211 11.75 23.6667 11.75C23.9122 11.75 24.2869 12.1197 24.6184 12.8933C25.016 13.8209 25.25 15.112 25.25 16.5C25.25 17.888 25.016 19.179 24.6184 20.1067Z" fill="white"/>
    </g>
    <defs>
        <filter id="filter0_d_0_1" x="0" y="0" width="41.7778" height="41.7778" filterUnits="userSpaceOnUse" color-interpolation-filters="sRGB">
            <feFlood flood-opacity="0" result="BackgroundImageFix"/>
            <feColorMatrix in="SourceAlpha" type="matrix" values="0 0 0 0 0 0 0 0 0 0 0 0 0 0 0 0 0 0 127 0" result="hardAlpha"/>
            <feOffset dy="4"/>
            <feGaussianBlur stdDeviation="2"/>
            <feComposite in2="hardAlpha" operator="out"/>
            <feColorMatrix type="matrix" values="0 0 0 0 0 0 0 0 0 0 0 0 0 0 0 0 0 0 0.25 0"/>
            <feBlend mode="normal" in2="BackgroundImageFix" result="effect1_dropShadow_0_1"/>
            <feBlend mode="normal" in="SourceGraphic" in2="effect1_dropShadow_0_1" result="shape"/>
        </filter>
        <clipPath id="clip0_0_1">
            <rect width="19" height="19" fill="white" transform="translate(11 7)"/>
        </clipPath>
    </defs>
</svg>
