<svg width="42" height="42" viewBox="0 0 42 42" fill="none" xmlns="http://www.w3.org/2000/svg">
    <g filter="url(#filter0_d_0_1)">
        <circle cx="20.8889" cy="16.8889" r="16.8889" fill="#EC2828"/>
        <circle cx="20.8889" cy="16.8889" r="16.3889" stroke="white"/>
    </g>
    <path d="M16.4 12H13.6C13.2686 12 13 12.2686 13 12.6V21.4C13 21.7314 13.2686 22 13.6 22H16.4C16.7314 22 17 21.7314 17 21.4V12.6C17 12.2686 16.7314 12 16.4 12Z" stroke="white" stroke-width="1.5" stroke-linecap="round" stroke-linejoin="round"/>
    <path d="M28.4 12H25.6C25.2686 12 25 12.2686 25 12.6V21.4C25 21.7314 25.2686 22 25.6 22H28.4C28.7314 22 29 21.7314 29 21.4V12.6C29 12.2686 28.7314 12 28.4 12Z" stroke="white" stroke-width="1.5" stroke-linecap="round" stroke-linejoin="round"/>
    <path d="M10 19.4V14.6C10 14.2686 10.2686 14 10.6 14H12.4C12.7314 14 13 14.2686 13 14.6V19.4C13 19.7314 12.7314 20 12.4 20H10.6C10.2686 20 10 19.7314 10 19.4Z" stroke="white" stroke-width="1.5" stroke-linecap="round" stroke-linejoin="round"/>
    <path d="M32 19.4V14.6C32 14.2686 31.7314 14 31.4 14H29.6C29.2686 14 29 14.2686 29 14.6V19.4C29 19.7314 29.2686 20 29.6 20H31.4C31.7314 20 32 19.7314 32 19.4Z" stroke="white" stroke-width="1.5" stroke-linecap="round" stroke-linejoin="round"/>
    <path d="M17 17H25" stroke="white" stroke-width="1.5" stroke-linecap="round" stroke-linejoin="round"/>
    <defs>
        <filter id="filter0_d_0_1" x="0" y="0" width="41.7778" height="41.7778" filterUnits="userSpaceOnUse" color-interpolation-filters="sRGB">
            <feFlood flood-opacity="0" result="BackgroundImageFix"/>
            <feColorMatrix in="SourceAlpha" type="matrix" values="0 0 0 0 0 0 0 0 0 0 0 0 0 0 0 0 0 0 127 0" result="hardAlpha"/>
            <feOffset dy="4"/>
            <feGaussianBlur stdDeviation="2"/>
            <feComposite in2="hardAlpha" operator="out"/>
            <feColorMatrix type="matrix" values="0 0 0 0 0 0 0 0 0 0 0 0 0 0 0 0 0 0 0.25 0"/>
            <feBlend mode="normal" in2="BackgroundImageFix" result="effect1_dropShadow_0_1"/>
            <feBlend mode="normal" in="SourceGraphic" in2="effect1_dropShadow_0_1" result="shape"/>
        </filter>
    </defs>
</svg>
