<svg width="42" height="42" viewBox="0 0 42 42" fill="none" xmlns="http://www.w3.org/2000/svg">
    <g filter="url(#filter0_d_0_1)">
        <circle cx="20.8889" cy="16.8889" r="16.8889" fill="#EC2828"/>
        <circle cx="20.8889" cy="16.8889" r="16.3889" stroke="white"/>
    </g>
    <path d="M21.5045 18.5043C21.8622 18.4664 22.1213 18.1459 22.0835 17.7884C22.0457 17.4307 21.7251 17.1716 21.3675 17.2093L21.5045 18.5043ZM13.9972 11.0969L14.6481 11.1159C14.6482 11.111 14.6483 11.1061 14.6483 11.1012L13.9972 11.0969ZM14.6475 10.451L14.6474 11.1021L14.6547 11.102L14.6475 10.451ZM18.4147 12.2037C18.7152 12.401 19.1189 12.3174 19.3163 12.0169C19.5137 11.7163 19.4301 11.3126 19.1295 11.1152L18.4147 12.2037ZM14.6475 9.7999C14.3038 9.79989 13.9742 9.9358 13.7304 10.178L14.6483 11.1012L14.6474 11.1021L14.6475 9.7999ZM13.7304 10.178C13.4866 10.4201 13.3485 10.7489 13.3462 11.0925L14.6483 11.1012L13.7304 10.178ZM13.3464 11.0778C13.215 15.5719 17.185 18.9614 21.5045 18.5043L21.3675 17.2093C17.7835 17.5886 14.5411 14.7735 14.6481 11.1159L13.3464 11.0778ZM19.1295 11.1152C17.7982 10.2409 16.2354 9.78226 14.6402 9.79993L14.6547 11.102C15.9907 11.0872 17.2997 11.4714 18.4147 12.2037L19.1295 11.1152Z" fill="white"/>
    <path d="M23.6052 11.1982C23.3079 11.4004 23.2308 11.8054 23.4331 12.1027C23.6353 12.4001 24.0402 12.4772 24.3376 12.2749L23.6052 11.1982ZM28.1904 10.4509L28.1868 11.102H28.1896L28.1904 10.4509ZM28.8389 11.0968L28.1878 11.1002C28.1879 11.1053 28.188 11.1103 28.1881 11.1153L28.8389 11.0968ZM26.9603 16.0129L27.4035 16.4899C27.4136 16.4805 27.4235 16.4708 27.4329 16.4608L26.9603 16.0129ZM21.6021 17.2163C21.244 17.184 20.9275 17.4483 20.8952 17.8063C20.863 18.1645 21.1272 18.481 21.4854 18.5132L21.6021 17.2163ZM24.3376 12.2749C25.4723 11.5032 26.8146 11.0942 28.1868 11.102L28.1942 9.79981C26.5582 9.7905 24.958 10.2781 23.6052 11.1982L24.3376 12.2749ZM28.1896 11.102C28.1891 11.102 28.1887 11.1018 28.1884 11.1015L29.1073 10.1788C28.864 9.93652 28.5347 9.80027 28.1913 9.7998L28.1896 11.102ZM28.1884 11.1015C28.1881 11.1012 28.1878 11.1007 28.1878 11.1002L29.49 11.0933C29.4882 10.7499 29.3506 10.4212 29.1073 10.1788L28.1884 11.1015ZM28.1881 11.1153C28.2114 11.9324 28.0732 12.7461 27.7814 13.5096L28.9978 13.9745C29.3508 13.0508 29.5179 12.0666 29.4897 11.0782L28.1881 11.1153ZM27.7814 13.5096C27.4896 14.2732 27.05 14.9717 26.4877 15.5651L27.4329 16.4608C28.1131 15.743 28.6448 14.8981 28.9978 13.9745L27.7814 13.5096ZM26.5171 15.5359C25.8494 16.1563 25.0565 16.6264 24.1917 16.9146L24.6034 18.15C25.6447 17.803 26.5994 17.237 27.4035 16.4899L26.5171 15.5359ZM24.1917 16.9146C23.3582 17.1925 22.4765 17.295 21.6021 17.2163L21.4854 18.5132C22.5382 18.608 23.5998 18.4845 24.6034 18.15L24.1917 16.9146Z" fill="white"/>
    <path d="M28.5804 19.6255C28.5863 19.2659 28.2997 18.9697 27.9401 18.9638C27.5806 18.9579 27.2843 19.2447 27.2784 19.6042L28.5804 19.6255ZM15.5592 19.6042C15.5533 19.2447 15.2571 18.958 14.8976 18.9638C14.538 18.9697 14.2513 19.2659 14.2572 19.6254L15.5592 19.6042ZM27.2784 19.6042C27.27 20.1226 26.8235 20.7654 25.7154 21.3152C24.6459 21.8458 23.1287 22.192 21.4188 22.192V23.4942C23.2865 23.4942 25.0099 23.1189 26.2941 22.4817C27.5396 21.8638 28.5598 20.8924 28.5804 19.6255L27.2784 19.6042ZM21.4188 22.192C19.7086 22.192 18.1914 21.8466 17.122 21.3164C16.0143 20.7673 15.5676 20.1245 15.5592 19.6042L14.2572 19.6254C14.2778 20.894 15.2977 21.8653 16.5436 22.4831C17.8279 23.1198 19.5513 23.4942 21.4188 23.4942V22.192Z" fill="white"/>
    <path d="M31.1837 19.5853H31.8348V19.5789L31.1837 19.5853ZM11.6511 19.5879L11 19.5818V19.5879H11.6511ZM13.0027 17.3487C13.2044 17.0511 13.1265 16.6462 12.8288 16.4445C12.5312 16.2429 12.1263 16.3206 11.9246 16.6183L13.0027 17.3487ZM30.9235 16.6381C30.7231 16.3396 30.3186 16.26 30.02 16.4604C29.7215 16.6609 29.6419 17.0653 29.8423 17.3639L30.9235 16.6381ZM30.5326 19.5853C30.5326 21.0977 29.613 22.5467 27.9619 23.6474C26.3155 24.745 24.0036 25.445 21.4174 25.445V26.7472C24.2248 26.7472 26.796 25.9897 28.6843 24.7308C30.568 23.475 31.8348 21.6686 31.8348 19.5853H30.5326ZM21.4174 25.445C18.8311 25.445 16.5191 24.7456 14.8727 23.6486C13.2217 22.5486 12.3022 21.1002 12.3022 19.5879H11C11 21.6713 12.2668 23.477 14.1506 24.7322C16.039 25.9904 18.6101 26.7472 21.4174 26.7472V25.445ZM12.3021 19.594C12.3096 18.7929 12.5533 18.0119 13.0027 17.3487L11.9246 16.6183C11.3315 17.4936 11.0099 18.5245 11 19.5818L12.3021 19.594ZM29.8423 17.3639C30.2848 18.0231 30.5249 18.7975 30.5326 19.5916L31.8348 19.5789C31.8244 18.5305 31.5076 17.5083 30.9235 16.6381L29.8423 17.3639Z" fill="white"/>
    <path d="M21.4361 17.8567L21.0266 18.3629C21.2654 18.5561 21.6068 18.5561 21.8456 18.3629L21.4361 17.8567ZM18.8317 12.648L18.1809 12.6303C18.1805 12.6442 18.1806 12.6581 18.1811 12.6719L18.8317 12.648ZM20.9899 7.83348L21.4362 8.30754C21.4394 8.30454 21.4425 8.30151 21.4457 8.29845L20.9899 7.83348ZM21.8832 7.83348L21.4274 8.29845C21.4305 8.30145 21.4331 8.3046 21.4362 8.30754L21.8832 7.83348ZM24.0405 12.648L24.6911 12.6719C24.6916 12.6581 24.6916 12.6441 24.6913 12.6303L24.0405 12.648ZM21.4457 8.29845C21.4432 8.30084 21.4399 8.30217 21.4365 8.30217V7C21.0991 7 20.7751 7.13231 20.5341 7.36851L21.4457 8.29845ZM21.4365 8.30217C21.4332 8.30217 21.4299 8.30084 21.4274 8.29845L22.3389 7.36851C22.098 7.13231 21.774 7 21.4365 7V8.30217ZM19.4826 12.6658C19.5272 11.0288 20.2438 9.43006 21.4362 8.30754L20.5436 7.35942C19.0988 8.71958 18.235 10.6468 18.1809 12.6303L19.4826 12.6658ZM21.8456 17.3506C20.424 16.2005 19.5495 14.4515 19.4824 12.6242L18.1811 12.6719C18.262 14.8754 19.3124 16.9761 21.0266 18.3629L21.8456 17.3506ZM23.3898 12.6242C23.3227 14.4515 22.4482 16.2005 21.0266 17.3506L21.8456 18.3629C23.5598 16.9761 24.6102 14.8754 24.6911 12.6719L23.3898 12.6242ZM21.4362 8.30754C22.628 9.43048 23.3448 11.0289 23.3896 12.6658L24.6913 12.6303C24.6371 10.647 23.7737 8.72011 22.3297 7.35959L21.4362 8.30754Z" fill="white"/>
    <defs>
        <filter id="filter0_d_0_1" x="0" y="0" width="41.7778" height="41.7778" filterUnits="userSpaceOnUse" color-interpolation-filters="sRGB">
            <feFlood flood-opacity="0" result="BackgroundImageFix"/>
            <feColorMatrix in="SourceAlpha" type="matrix" values="0 0 0 0 0 0 0 0 0 0 0 0 0 0 0 0 0 0 127 0" result="hardAlpha"/>
            <feOffset dy="4"/>
            <feGaussianBlur stdDeviation="2"/>
            <feComposite in2="hardAlpha" operator="out"/>
            <feColorMatrix type="matrix" values="0 0 0 0 0 0 0 0 0 0 0 0 0 0 0 0 0 0 0.25 0"/>
            <feBlend mode="normal" in2="BackgroundImageFix" result="effect1_dropShadow_0_1"/>
            <feBlend mode="normal" in="SourceGraphic" in2="effect1_dropShadow_0_1" result="shape"/>
        </filter>
    </defs>
</svg>
