<svg width="42" height="42" viewBox="0 0 42 42" fill="none" xmlns="http://www.w3.org/2000/svg">
    <g filter="url(#filter0_d_0_1)">
        <circle cx="20.8889" cy="16.8889" r="16.8889" fill="#EC2828"/>
        <circle cx="20.8889" cy="16.8889" r="16.3889" stroke="white"/>
    </g>
    <path d="M20.6 10.5C21.4837 10.5 22.2 9.7165 22.2 8.75C22.2 7.7835 21.4837 7 20.6 7C19.7163 7 19 7.7835 19 8.75C19 9.7165 19.7163 10.5 20.6 10.5Z" fill="white"/>
    <path d="M27.0457 24.7027L24.6567 21.6182L24.1448 17.9772C24.1448 17.9308 24.1362 17.8767 24.1277 17.8304C24.1277 17.8149 24.1192 17.7917 24.1106 17.7762L23.1294 12.7051L24.3922 13.5091L24.9468 16.3461C25.0321 16.7867 25.4928 17.0728 25.9792 16.9955C26.4655 16.9182 26.7812 16.5007 26.6959 16.0601L26.073 12.8984C26.0304 12.6819 25.8939 12.4964 25.7062 12.3804L23.5304 11.0044C22.9759 10.6102 22.2591 10.4092 21.5083 10.5097L20.0578 10.7416C19.1705 10.9194 18.4794 11.4837 18.1637 12.2026L17.3958 14.1043L15 15.1543L14.5 12.8892L14 12.821L14.4351 15.3566C14.0512 15.5653 13.8976 16.0137 14.0853 16.3848C14.2048 16.6167 14.4351 16.7713 14.6911 16.8254L16.2952 26.2256H16.918L15.1622 16.8254C15.2475 16.8177 15.186 16.8099 15.2713 16.7713L18.4879 15.4185C18.7098 15.3257 18.8719 15.1634 18.9401 14.9624L19.6312 13.2462L20.4333 17.3433L18.0784 20.7447C17.9845 20.8607 17.9248 20.9921 17.8992 21.1467L17.1313 25.0969C17.0204 25.6381 17.4299 26.1637 18.0357 26.2642C18.6415 26.3647 19.2132 25.9937 19.3241 25.4448L20.0408 21.7342L21.8752 19.6006L22.5236 22.1671C22.5492 22.3063 22.609 22.4454 22.7028 22.5691L25.2454 25.8545C25.6038 26.3106 26.2863 26.4188 26.7812 26.1019C27.2761 25.7772 27.3955 25.1588 27.0457 24.7027Z" fill="white"/>
    <defs>
        <filter id="filter0_d_0_1" x="0" y="0" width="41.7778" height="41.7778" filterUnits="userSpaceOnUse" color-interpolation-filters="sRGB">
            <feFlood flood-opacity="0" result="BackgroundImageFix"/>
            <feColorMatrix in="SourceAlpha" type="matrix" values="0 0 0 0 0 0 0 0 0 0 0 0 0 0 0 0 0 0 127 0" result="hardAlpha"/>
            <feOffset dy="4"/>
            <feGaussianBlur stdDeviation="2"/>
            <feComposite in2="hardAlpha" operator="out"/>
            <feColorMatrix type="matrix" values="0 0 0 0 0 0 0 0 0 0 0 0 0 0 0 0 0 0 0.25 0"/>
            <feBlend mode="normal" in2="BackgroundImageFix" result="effect1_dropShadow_0_1"/>
            <feBlend mode="normal" in="SourceGraphic" in2="effect1_dropShadow_0_1" result="shape"/>
        </filter>
    </defs>
</svg>
