<svg width="42" height="42" viewBox="0 0 42 42" fill="none" xmlns="http://www.w3.org/2000/svg">
    <g filter="url(#filter0_d_0_1)">
        <circle cx="20.8889" cy="16.8889" r="16.8889" fill="#EC2828"/>
        <circle cx="20.8889" cy="16.8889" r="16.3889" stroke="white"/>
    </g>
    <path d="M12.4589 23.61H22.0585C22.4113 23.61 22.6971 23.8968 22.6971 24.2496C22.6969 24.6022 22.4111 24.8883 22.0585 24.8883H12.4589C12.1062 24.8883 11.8195 24.6022 11.8192 24.2496C11.8192 23.8968 12.1061 23.61 12.4589 23.61Z" fill="white" stroke="#EC2828" stroke-width="0.2"/>
    <mask id="path-4-inside-1_0_1" fill="white">
        <path d="M30.1803 22.576L27.3524 22.5738L26.3604 20.8072C26.6087 21.068 26.9217 21.2608 27.2763 21.3656C27.4715 21.4233 27.6706 21.4518 27.8686 21.4518C28.2114 21.4518 28.5509 21.3661 28.8605 21.1977L29.4949 20.8526C29.9834 20.5868 30.3391 20.1469 30.4965 19.6137C30.6539 19.0804 30.5943 18.5178 30.3286 18.0294L29.9835 17.395C29.7177 16.9065 29.2778 16.5508 28.7446 16.3934C28.2114 16.2358 27.6487 16.2955 27.1603 16.5612L26.5259 16.9064C25.6525 17.3815 25.2556 18.3954 25.5215 19.3134L25.4148 19.1234C25.3771 19.0562 25.334 18.99 25.2866 18.9262C24.9987 18.5212 24.5981 18.2191 24.1442 18.0503C24.1786 18.0186 24.2123 17.9858 24.2446 17.951C24.9278 17.2157 24.8854 16.0617 24.1505 15.3782L19.5588 11.1023C19.5171 11.0635 19.4722 11.0257 19.4251 10.9897C19.4019 10.9707 19.3776 10.9532 19.3537 10.9351C19.6186 10.8726 19.871 10.7576 20.0979 10.5929C20.5479 10.2664 20.8438 9.78413 20.931 9.23506L21.0444 8.52167C21.2244 7.38821 20.4487 6.3195 19.3153 6.13936L18.6019 6.026C17.4687 5.84581 16.3997 6.62158 16.2196 7.75509L16.1063 8.46831C16.019 9.01739 16.1508 9.56765 16.4774 10.0176C16.6414 10.2437 16.8448 10.4307 17.0761 10.5721C16.8531 10.65 16.6402 10.7608 16.4437 10.9035C15.9156 11.2867 15.5684 11.8526 15.4657 12.4994L14.6263 17.8972H13.4426C12.0958 17.8972 11 18.993 11 20.3398C11 21.6867 12.0958 22.7825 13.4426 22.7825L23.2926 22.7822L24.7 25.2885C25.0395 25.8929 25.7012 26.2538 26.3919 26.2148L30.178 26.218C30.1785 26.218 30.1787 26.218 30.1791 26.218C31.1826 26.218 31.9994 25.4019 32 24.3982C32.0007 23.3942 31.1844 22.5768 30.1803 22.576ZM26.9415 18.5638C26.9872 18.4091 27.0903 18.2815 27.2321 18.2044L27.8665 17.8592C28.0082 17.7821 28.1713 17.7648 28.3261 17.8106C28.4808 17.8562 28.6084 17.9594 28.6856 18.1012L29.0307 18.7356C29.1078 18.8773 29.1251 19.0405 29.0794 19.1952C29.0338 19.3499 28.9306 19.4775 28.7889 19.5546L28.1544 19.8998C28.0127 19.9768 27.8495 19.9941 27.6948 19.9485C27.5401 19.9028 27.4125 19.7996 27.3353 19.6579L26.9902 19.0234C26.9131 18.8818 26.8958 18.7185 26.9415 18.5638ZM17.5655 8.70025L17.6789 7.98703C17.7312 7.65817 18.0411 7.43312 18.37 7.48533L19.0833 7.5987C19.4122 7.65099 19.6372 7.96107 19.585 8.28985L19.4717 9.00324C19.4463 9.16246 19.3605 9.30241 19.23 9.39711C19.0994 9.49186 18.9397 9.53021 18.7805 9.50478L18.0672 9.39145C17.9079 9.36614 17.768 9.28034 17.6732 9.14975C17.5785 9.01915 17.5402 8.8596 17.5655 8.70025ZM16.9254 12.7288C16.9658 12.4743 17.103 12.2506 17.3116 12.0993C17.5202 11.9479 17.7752 11.8868 18.0299 11.9272C18.2012 11.9544 18.3618 12.027 18.4943 12.1373C18.5041 12.1454 18.514 12.1533 18.5242 12.1609C18.5351 12.1691 18.5447 12.1771 18.5523 12.1841L23.1435 16.4597C23.1437 16.4599 23.1439 16.4601 23.1442 16.4602C23.2829 16.5892 23.2909 16.8068 23.162 16.9455C23.0332 17.0843 22.8155 17.0922 22.6779 16.9644L19.7993 14.2798C19.599 14.093 19.312 14.0324 19.0533 14.1221C18.7946 14.2118 18.6068 14.4373 18.5652 14.7079L18.0755 17.8973H16.1217L16.9254 12.7288ZM21.5117 17.8972H19.5703L19.8135 16.3135L21.5117 17.8972ZM30.1793 24.7404H30.1791L26.3691 24.7372C26.3688 24.7372 26.3686 24.7372 26.3684 24.7372C26.3502 24.7372 26.332 24.7379 26.3139 24.7392C26.1817 24.7491 26.0534 24.6806 25.9885 24.565L24.3693 21.6817C24.2386 21.4488 23.9922 21.3047 23.7251 21.3047L13.4426 21.305C12.9105 21.305 12.4776 20.8721 12.4776 20.3399C12.4776 19.8078 12.9105 19.3749 13.4426 19.3749H15.2591H18.7095H23.2948C23.6084 19.3749 23.9038 19.5287 24.0849 19.7862C24.0898 19.7931 24.0947 19.7999 24.0998 19.8066C24.1104 19.8206 24.1193 19.8341 24.1265 19.8469L26.2757 23.674C26.4064 23.9067 26.6524 24.0508 26.9193 24.051L30.1792 24.0536H30.1793C30.3686 24.0538 30.5226 24.2079 30.5225 24.3972C30.5222 24.5865 30.3683 24.7404 30.1793 24.7404Z"/>
    </mask>
    <path d="M30.1803 22.576L27.3524 22.5738L26.3604 20.8072C26.6087 21.068 26.9217 21.2608 27.2763 21.3656C27.4715 21.4233 27.6706 21.4518 27.8686 21.4518C28.2114 21.4518 28.5509 21.3661 28.8605 21.1977L29.4949 20.8526C29.9834 20.5868 30.3391 20.1469 30.4965 19.6137C30.6539 19.0804 30.5943 18.5178 30.3286 18.0294L29.9835 17.395C29.7177 16.9065 29.2778 16.5508 28.7446 16.3934C28.2114 16.2358 27.6487 16.2955 27.1603 16.5612L26.5259 16.9064C25.6525 17.3815 25.2556 18.3954 25.5215 19.3134L25.4148 19.1234C25.3771 19.0562 25.334 18.99 25.2866 18.9262C24.9987 18.5212 24.5981 18.2191 24.1442 18.0503C24.1786 18.0186 24.2123 17.9858 24.2446 17.951C24.9278 17.2157 24.8854 16.0617 24.1505 15.3782L19.5588 11.1023C19.5171 11.0635 19.4722 11.0257 19.4251 10.9897C19.4019 10.9707 19.3776 10.9532 19.3537 10.9351C19.6186 10.8726 19.871 10.7576 20.0979 10.5929C20.5479 10.2664 20.8438 9.78413 20.931 9.23506L21.0444 8.52167C21.2244 7.38821 20.4487 6.3195 19.3153 6.13936L18.6019 6.026C17.4687 5.84581 16.3997 6.62158 16.2196 7.75509L16.1063 8.46831C16.019 9.01739 16.1508 9.56765 16.4774 10.0176C16.6414 10.2437 16.8448 10.4307 17.0761 10.5721C16.8531 10.65 16.6402 10.7608 16.4437 10.9035C15.9156 11.2867 15.5684 11.8526 15.4657 12.4994L14.6263 17.8972H13.4426C12.0958 17.8972 11 18.993 11 20.3398C11 21.6867 12.0958 22.7825 13.4426 22.7825L23.2926 22.7822L24.7 25.2885C25.0395 25.8929 25.7012 26.2538 26.3919 26.2148L30.178 26.218C30.1785 26.218 30.1787 26.218 30.1791 26.218C31.1826 26.218 31.9994 25.4019 32 24.3982C32.0007 23.3942 31.1844 22.5768 30.1803 22.576ZM26.9415 18.5638C26.9872 18.4091 27.0903 18.2815 27.2321 18.2044L27.8665 17.8592C28.0082 17.7821 28.1713 17.7648 28.3261 17.8106C28.4808 17.8562 28.6084 17.9594 28.6856 18.1012L29.0307 18.7356C29.1078 18.8773 29.1251 19.0405 29.0794 19.1952C29.0338 19.3499 28.9306 19.4775 28.7889 19.5546L28.1544 19.8998C28.0127 19.9768 27.8495 19.9941 27.6948 19.9485C27.5401 19.9028 27.4125 19.7996 27.3353 19.6579L26.9902 19.0234C26.9131 18.8818 26.8958 18.7185 26.9415 18.5638ZM17.5655 8.70025L17.6789 7.98703C17.7312 7.65817 18.0411 7.43312 18.37 7.48533L19.0833 7.5987C19.4122 7.65099 19.6372 7.96107 19.585 8.28985L19.4717 9.00324C19.4463 9.16246 19.3605 9.30241 19.23 9.39711C19.0994 9.49186 18.9397 9.53021 18.7805 9.50478L18.0672 9.39145C17.9079 9.36614 17.768 9.28034 17.6732 9.14975C17.5785 9.01915 17.5402 8.8596 17.5655 8.70025ZM16.9254 12.7288C16.9658 12.4743 17.103 12.2506 17.3116 12.0993C17.5202 11.9479 17.7752 11.8868 18.0299 11.9272C18.2012 11.9544 18.3618 12.027 18.4943 12.1373C18.5041 12.1454 18.514 12.1533 18.5242 12.1609C18.5351 12.1691 18.5447 12.1771 18.5523 12.1841L23.1435 16.4597C23.1437 16.4599 23.1439 16.4601 23.1442 16.4602C23.2829 16.5892 23.2909 16.8068 23.162 16.9455C23.0332 17.0843 22.8155 17.0922 22.6779 16.9644L19.7993 14.2798C19.599 14.093 19.312 14.0324 19.0533 14.1221C18.7946 14.2118 18.6068 14.4373 18.5652 14.7079L18.0755 17.8973H16.1217L16.9254 12.7288ZM21.5117 17.8972H19.5703L19.8135 16.3135L21.5117 17.8972ZM30.1793 24.7404H30.1791L26.3691 24.7372C26.3688 24.7372 26.3686 24.7372 26.3684 24.7372C26.3502 24.7372 26.332 24.7379 26.3139 24.7392C26.1817 24.7491 26.0534 24.6806 25.9885 24.565L24.3693 21.6817C24.2386 21.4488 23.9922 21.3047 23.7251 21.3047L13.4426 21.305C12.9105 21.305 12.4776 20.8721 12.4776 20.3399C12.4776 19.8078 12.9105 19.3749 13.4426 19.3749H15.2591H18.7095H23.2948C23.6084 19.3749 23.9038 19.5287 24.0849 19.7862C24.0898 19.7931 24.0947 19.7999 24.0998 19.8066C24.1104 19.8206 24.1193 19.8341 24.1265 19.8469L26.2757 23.674C26.4064 23.9067 26.6524 24.0508 26.9193 24.051L30.1792 24.0536H30.1793C30.3686 24.0538 30.5226 24.2079 30.5225 24.3972C30.5222 24.5865 30.3683 24.7404 30.1793 24.7404Z" fill="white" stroke="#EC2828" stroke-width="0.4" mask="url(#path-4-inside-1_0_1)"/>
    <defs>
        <filter id="filter0_d_0_1" x="0" y="0" width="41.7778" height="41.7778" filterUnits="userSpaceOnUse" color-interpolation-filters="sRGB">
            <feFlood flood-opacity="0" result="BackgroundImageFix"/>
            <feColorMatrix in="SourceAlpha" type="matrix" values="0 0 0 0 0 0 0 0 0 0 0 0 0 0 0 0 0 0 127 0" result="hardAlpha"/>
            <feOffset dy="4"/>
            <feGaussianBlur stdDeviation="2"/>
            <feComposite in2="hardAlpha" operator="out"/>
            <feColorMatrix type="matrix" values="0 0 0 0 0 0 0 0 0 0 0 0 0 0 0 0 0 0 0.25 0"/>
            <feBlend mode="normal" in2="BackgroundImageFix" result="effect1_dropShadow_0_1"/>
            <feBlend mode="normal" in="SourceGraphic" in2="effect1_dropShadow_0_1" result="shape"/>
        </filter>
    </defs>
</svg>
