<svg xmlns="http://www.w3.org/2000/svg" width="33" height="31" viewBox="0 0 33 31">
    <path fill="#272e35" d="M26.5 15v16h-20V15h20zm-24 0a2 2 0 0 1 2 2h0v10a2 2 0 1 1-4 0h0V17a2 2 0 0 1 2-2zm28 0a2 2 0 0 1 2 2h0v10a2 2 0 1 1-4 0h0V17a2 2 0 0 1 2-2zM23.668.446c.304-.462.924-.584 1.386-.278a1 1 0 0 1 .278 1.386h0l-2.506 3.76C25.052 7.148 26.5 9.89 26.5 13h0-20c0-3.11 1.448-5.852 3.674-7.686h0l-2.506-3.76A1 1 0 0 1 7.946.168a1 1 0 0 1 1.386.278h0l2.506 3.758C13.236 3.46 14.806 3 16.5 3s3.264.46 4.662 1.204h0z"></path>
</svg>