<svg xmlns="http://www.w3.org/2000/svg" width="32" height="32" fill="none" viewBox="0 0 32 32">
    <path d="M15.942 4.606l.89-1.574a1.98 1.98 0 0 1 2.738-.753c.962.562 1.286 1.816.737 2.799l-8.581 15.187h6.207c2.012 0 3.139 2.417 2.265 4.092H2.001C.891 24.357 0 23.447 0 22.311s.891-2.046 2.001-2.046h5.102l6.531-11.573-2.04-3.62c-.55-.984-.225-2.226.737-2.799.962-.562 2.177-.23 2.738.753l.874 1.579zM8.224 26.465L6.3 29.877a1.98 1.98 0 0 1-2.738.753c-.962-.562-1.286-1.816-.737-2.799l1.429-2.529c1.616-.511 2.93-.118 3.969 1.163zm16.569-6.188h5.206c1.11 0 2.001.911 2.001 2.046s-.891 2.046-2.001 2.046h-2.892l1.952 3.462c.55.984.225 2.226-.737 2.799-.962.562-2.177.23-2.738-.753L18.191 16.78c-1.677-2.956-.478-5.924.704-6.93l5.899 10.427z" fill="#272e35"></path>
</svg>