<svg width="42" height="42" viewBox="0 0 42 42" fill="none" xmlns="http://www.w3.org/2000/svg">
    <g filter="url(#filter0_d_0_1)">
        <circle cx="20.8889" cy="16.8889" r="16.8889" fill="#EC2828"/>
        <circle cx="20.8889" cy="16.8889" r="16.3889" stroke="white"/>
    </g>
    <path d="M17.704 9.9502C17.1407 9.9502 16.4697 10.3178 15.7753 10.873C15.0784 11.4303 14.3476 12.1844 13.662 12.9727C12.2904 14.5495 11.0941 16.2694 10.705 16.8438C10.5753 17.0345 10.5583 17.2813 10.6649 17.4863L10.6639 17.4873C10.7147 17.5936 11.9412 20.0673 14.2616 22.168C14.5227 22.4054 14.9261 22.3819 15.161 22.1191C15.396 21.8561 15.3763 21.4495 15.1132 21.2119C13.4541 19.7105 12.3826 17.959 11.9823 17.2451C13.0055 15.7708 14.1918 14.2678 15.2479 13.1328C15.7792 12.5619 16.2767 12.0849 16.702 11.751C16.9147 11.5841 17.1089 11.4536 17.2792 11.3652C17.4501 11.2766 17.5932 11.2325 17.7059 11.2324C17.7896 11.2324 17.8921 11.2638 18.0087 11.3213C18.1244 11.3784 18.2504 11.4597 18.3817 11.5557C18.6447 11.748 18.9236 11.9958 19.1737 12.2188C19.4969 12.5055 19.8136 12.7874 20.1317 12.9971C20.45 13.2069 20.7748 13.3486 21.1151 13.3486C21.467 13.3486 21.8056 13.2032 22.1376 12.9873C22.4695 12.7715 22.8004 12.4816 23.1366 12.1865C23.3655 11.986 23.6347 11.7493 23.8866 11.5635C24.0123 11.4708 24.1326 11.3919 24.2401 11.3359C24.3491 11.2792 24.4399 11.249 24.5077 11.249H24.5096C24.623 11.2504 24.767 11.2962 24.9384 11.3857C25.1089 11.4749 25.3027 11.6055 25.5155 11.7725C25.9415 12.1067 26.4396 12.583 26.9716 13.1523C28.0292 14.2842 29.2185 15.7797 30.244 17.2471C29.8613 17.925 28.8684 19.539 27.3378 20.9912C25.7862 22.4632 23.6866 23.7645 21.1132 23.7646C19.9804 23.7646 18.8611 23.5141 17.786 23.0176C17.4663 22.8718 17.0874 23.0133 16.9393 23.335C16.7913 23.657 16.9347 24.0375 17.2538 24.1855C18.4945 24.7586 19.7929 25.0498 21.1102 25.0498C23.8905 25.0498 26.5838 23.7319 28.8973 21.2461C30.6161 19.3998 31.5216 17.5724 31.5614 17.4902C31.6634 17.281 31.6456 17.0333 31.5155 16.8418L31.0809 16.2197C30.5155 15.4246 29.5851 14.1688 28.5565 12.9912C27.8709 12.2062 27.1408 11.4539 26.4442 10.8965C25.7501 10.341 25.0799 9.97056 24.5175 9.96387H24.5028C24.1085 9.96387 23.7287 10.1278 23.3632 10.3643C22.9977 10.6007 22.6408 10.9133 22.2928 11.2178C22.1089 11.3793 21.8654 11.5932 21.6385 11.7666C21.525 11.8533 21.4167 11.9296 21.3231 11.9834C21.2269 12.0387 21.1546 12.0654 21.1102 12.0654C21.0936 12.0654 21.0687 12.0605 21.035 12.0469C21.002 12.0335 20.9638 12.013 20.9208 11.9873C20.8347 11.9359 20.7337 11.8641 20.6278 11.7812C20.4163 11.6159 20.1876 11.4121 20.0155 11.2588C19.6592 10.9401 19.2921 10.6128 18.911 10.3662C18.5299 10.1197 18.1295 9.95027 17.704 9.9502ZM23.4833 15.8047C22.8263 15.8684 22.3179 16.1205 21.8964 16.3301L21.6219 16.4629C21.3622 16.5835 21.1388 16.6641 20.9003 16.6641C20.5945 16.6639 20.2423 16.5185 19.8173 16.3428C19.3407 16.1451 18.7693 15.9078 18.0956 15.8467C17.4202 15.7854 16.6442 15.9011 15.7567 16.4043C15.5484 16.5225 15.2964 16.6495 15.0956 16.7471C14.9956 16.7957 14.9083 16.8369 14.8456 16.8662C14.8142 16.8809 14.7889 16.8933 14.7714 16.9014C14.7626 16.9054 14.7555 16.9081 14.7509 16.9102C14.7488 16.9111 14.7471 16.9116 14.746 16.9121H14.7479L14.7421 16.9141H14.743C14.4214 17.0621 14.2781 17.4403 14.4237 17.7646L14.4247 17.7637C14.568 18.0885 14.9427 18.2315 15.2714 18.084L15.2772 18.0811C15.2789 18.0803 15.2813 18.0794 15.2841 18.0781C15.2899 18.0753 15.2984 18.0712 15.3085 18.0664C15.3285 18.0569 15.3572 18.0435 15.3915 18.0273C15.4606 17.9947 15.5556 17.9492 15.6639 17.8965C15.8803 17.7912 16.1524 17.6548 16.3856 17.5234C17.0078 17.1711 17.5227 17.0828 17.9901 17.126C18.4596 17.1694 18.8847 17.3459 19.3309 17.5312H19.3319C19.8223 17.733 20.3382 17.9492 20.9032 17.9492C21.3655 17.9492 21.753 17.8135 22.1112 17.6504L22.4608 17.4824C22.8552 17.2864 23.2142 17.1094 23.6571 17.0752C24.0989 17.0411 24.6313 17.1487 25.368 17.5381C25.8391 17.7877 26.517 18.0744 26.5516 18.0889C26.6312 18.1222 26.7162 18.1377 26.7977 18.1377C27.0146 18.1376 27.2233 18.0244 27.3407 17.832L27.3856 17.7441C27.5209 17.4173 27.3674 17.0423 27.0428 16.9043L27.0399 16.9023L27.0116 16.8906C26.9924 16.8825 26.9647 16.8711 26.9305 16.8564C26.8617 16.8268 26.7658 16.7849 26.6571 16.7363C26.4395 16.639 26.1705 16.5136 25.9589 16.4014C24.9447 15.8664 24.1414 15.741 23.4833 15.8047Z" fill="white" stroke="white" stroke-width="0.1"/>
    <defs>
        <filter id="filter0_d_0_1" x="0" y="0" width="41.7778" height="41.7778" filterUnits="userSpaceOnUse" color-interpolation-filters="sRGB">
            <feFlood flood-opacity="0" result="BackgroundImageFix"/>
            <feColorMatrix in="SourceAlpha" type="matrix" values="0 0 0 0 0 0 0 0 0 0 0 0 0 0 0 0 0 0 127 0" result="hardAlpha"/>
            <feOffset dy="4"/>
            <feGaussianBlur stdDeviation="2"/>
            <feComposite in2="hardAlpha" operator="out"/>
            <feColorMatrix type="matrix" values="0 0 0 0 0 0 0 0 0 0 0 0 0 0 0 0 0 0 0.25 0"/>
            <feBlend mode="normal" in2="BackgroundImageFix" result="effect1_dropShadow_0_1"/>
            <feBlend mode="normal" in="SourceGraphic" in2="effect1_dropShadow_0_1" result="shape"/>
        </filter>
    </defs>
</svg>
