<svg width="42" height="42" viewBox="0 0 42 42" fill="none" xmlns="http://www.w3.org/2000/svg">
    <g filter="url(#filter0_d_0_1)">
        <circle cx="20.8889" cy="16.8889" r="16.8889" fill="#EC2828"/>
        <circle cx="20.8889" cy="16.8889" r="16.3889" stroke="white"/>
    </g>
    <path fill-rule="evenodd" clip-rule="evenodd" d="M30 10.4546C30 9.7313 29.0632 9.47402 28.4434 9.30381C28.3865 9.28818 28.3322 9.27327 28.2816 9.25881C27.5076 9.03766 26.4083 8.81824 25.0909 8.81824C23.6805 8.81824 22.5176 9.28787 21.7191 9.74422C21.5969 9.81402 21.4685 9.91044 21.3524 9.99759C21.1991 10.1127 21.0673 10.2117 21 10.2117C20.9327 10.2117 20.8009 10.1127 20.6476 9.99759C20.5315 9.91044 20.4031 9.81402 20.2809 9.74422C19.4824 9.28787 18.3195 8.81824 16.9091 8.81824C15.5916 8.81824 14.4924 9.03766 13.7184 9.25881C13.6697 9.27271 13.6176 9.28707 13.5629 9.30214C12.9458 9.47205 12 9.73249 12 10.4546V21.091C12 21.3745 12.1468 21.6378 12.388 21.787C12.7718 22.0241 13.2782 21.8165 13.727 21.6326C13.8835 21.5684 14.0331 21.5071 14.168 21.4686C14.8258 21.2806 15.772 21.091 16.9091 21.091C17.9411 21.091 18.7136 21.4314 19.2928 21.7878C19.4415 21.8794 19.5919 21.9961 19.7462 22.1159C20.1277 22.4122 20.5335 22.7273 21 22.7273C21.4678 22.7273 21.8716 22.4133 22.2524 22.1172C22.4069 21.997 22.5576 21.8799 22.7072 21.7878C23.2864 21.4314 24.0589 21.091 25.0909 21.091C26.228 21.091 27.1742 21.2806 27.8321 21.4686C27.9731 21.5089 28.1263 21.5735 28.2853 21.6407C28.7272 21.8273 29.214 22.0329 29.6119 21.787C29.8531 21.6378 30 21.3745 30 21.091V10.4546ZM13.9084 10.9107C13.7441 10.9632 13.6364 11.118 13.6364 11.2905V19.372C13.6364 19.6452 13.8989 19.8418 14.1645 19.7779C14.8929 19.6024 15.8273 19.4546 16.9091 19.4546C18.3516 19.4546 19.4286 19.945 20.1818 20.4136V11.6456C20.0173 11.5149 19.7758 11.3402 19.4691 11.165C18.8359 10.8031 17.9533 10.4546 16.9091 10.4546C15.6123 10.4546 14.5608 10.7025 13.9084 10.9107ZM25.0909 19.4546C23.6484 19.4546 22.5714 19.945 21.8182 20.4136V11.6456C21.9827 11.5149 22.2242 11.3402 22.5309 11.165C23.1642 10.8031 24.0467 10.4546 25.0909 10.4546C26.3876 10.4546 27.4392 10.7025 28.0916 10.9107C28.256 10.9632 28.3636 11.118 28.3636 11.2905V19.372C28.3636 19.6452 28.1011 19.8418 27.8355 19.7779C27.1071 19.6024 26.1727 19.4546 25.0909 19.4546Z" fill="white"/>
    <path d="M12.8897 23.8798C12.705 23.4674 12.8896 22.9834 13.302 22.7987C13.6851 22.6284 14.0817 22.4853 14.4806 22.3573C15.1424 22.1449 16.0575 21.9091 16.9091 21.9091C17.8638 21.9091 18.6787 22.4236 19.2693 22.7965C19.2996 22.8157 19.3293 22.8344 19.3585 22.8527C20.0466 23.2853 20.5094 23.5454 21 23.5454C21.49 23.5454 21.9501 23.286 22.6374 22.8531C22.6656 22.8353 22.6943 22.8172 22.7236 22.7986C23.3147 22.4248 24.1301 21.9091 25.0909 21.9091C25.9471 21.9091 26.862 22.1448 27.5235 22.3574C28.1175 22.5484 28.5582 22.7372 28.6714 22.787C29.0854 22.9701 29.2999 23.4589 29.1097 23.8813C28.9255 24.2905 28.4339 24.472 28.0261 24.2907C27.6995 24.1467 27.3623 24.0245 27.0226 23.9152C26.4116 23.7188 25.6902 23.5454 25.0909 23.5454C24.6335 23.5454 24.1939 23.8061 23.4602 24.2688C22.852 24.6523 22.0123 25.1818 21 25.1818C19.987 25.1818 19.1447 24.6517 18.5347 24.2678C17.7995 23.805 17.3609 23.5454 16.9091 23.5454C16.3149 23.5454 15.5936 23.7186 14.9805 23.9154C14.639 24.025 14.2989 24.1469 13.9706 24.2923C13.5582 24.4768 13.0743 24.2922 12.8897 23.8798Z" fill="white"/>
    <defs>
        <filter id="filter0_d_0_1" x="0" y="0" width="41.7778" height="41.7778" filterUnits="userSpaceOnUse" color-interpolation-filters="sRGB">
            <feFlood flood-opacity="0" result="BackgroundImageFix"/>
            <feColorMatrix in="SourceAlpha" type="matrix" values="0 0 0 0 0 0 0 0 0 0 0 0 0 0 0 0 0 0 127 0" result="hardAlpha"/>
            <feOffset dy="4"/>
            <feGaussianBlur stdDeviation="2"/>
            <feComposite in2="hardAlpha" operator="out"/>
            <feColorMatrix type="matrix" values="0 0 0 0 0 0 0 0 0 0 0 0 0 0 0 0 0 0 0.25 0"/>
            <feBlend mode="normal" in2="BackgroundImageFix" result="effect1_dropShadow_0_1"/>
            <feBlend mode="normal" in="SourceGraphic" in2="effect1_dropShadow_0_1" result="shape"/>
        </filter>
    </defs>
</svg>
