<svg width="42" height="42" viewBox="0 0 42 42" fill="none" xmlns="http://www.w3.org/2000/svg">
<g filter="url(#filter0_d_6_245)">
<circle cx="20.8889" cy="16.8889" r="16.8889" fill="#EC2828"/>
<circle cx="20.8889" cy="16.8889" r="16.3889" stroke="white"/>
</g>
<path d="M22.4802 23.7238H19.6306C16.5331 23.7238 13.9312 21.4937 13.4356 18.5201L12.4445 13.0686C12.4445 12.6969 12.4445 12.4491 12.6923 12.2013C12.9401 11.9535 13.1878 11.8296 13.5595 11.8296H28.5513C28.923 11.8296 29.1707 11.9535 29.4185 12.2013C29.6663 12.4491 29.6663 12.8208 29.6663 13.0686L28.6752 18.5201C28.1796 21.6176 25.5777 23.7238 22.4802 23.7238ZM13.8073 13.1925L14.6746 18.3962C15.0463 20.8742 17.1526 22.6088 19.6306 22.6088H22.4802C24.9582 22.6088 27.0645 20.8742 27.4362 18.3962L28.3035 13.1925H13.8073Z" fill="white"/>
<path d="M28.4274 13.9359C29.0469 13.3165 30.4097 12.8209 31.5248 13.9359C32.2682 14.6793 32.3921 16.1661 31.6487 17.2812C31.1531 18.1485 30.2858 18.6441 29.2946 18.6441C28.923 18.6441 28.5513 18.5202 28.0557 18.3963L28.4274 17.1573C29.6663 17.529 30.2858 17.0334 30.5336 16.5378C30.9053 15.9183 30.9053 15.051 30.5336 14.6793C29.9141 14.0598 29.4185 14.5554 29.1707 14.6793L28.4274 13.9359Z" fill="white"/>
<path d="M18.3916 11.0861C18.1438 11.0861 18.0199 10.9622 17.896 10.8383C17.896 10.7144 17.5243 10.2188 17.5243 9.47538C17.5243 8.73199 17.896 8.1125 17.896 8.1125C17.896 8.1125 18.1438 7.7408 18.1438 7.36911C18.1438 6.99741 17.896 6.62572 17.896 6.62572C17.7721 6.37792 17.7721 6.00622 18.1438 5.75843C18.3916 5.63453 18.7633 5.63453 19.0111 6.00622C19.0111 6.13012 19.3828 6.62572 19.3828 7.36911C19.3828 8.1125 19.0111 8.73199 19.0111 8.73199C19.0111 8.73199 18.7633 9.10368 18.7633 9.47538C18.7633 9.84708 19.0111 10.2188 19.0111 10.2188C19.135 10.4666 19.135 10.8383 18.7633 11.0861C18.5155 11.0861 18.5155 11.0861 18.3916 11.0861Z" fill="white"/>
<path d="M21.1174 11.0861C20.8696 11.0861 20.7457 10.9622 20.6218 10.8383C20.6218 10.8383 20.2501 10.2188 20.2501 9.47538C20.2501 8.73199 20.6218 8.1125 20.6218 8.1125C20.6218 8.1125 20.8696 7.7408 20.8696 7.36911C20.8696 6.99741 20.6218 6.62572 20.6218 6.62572C20.4979 6.37792 20.4979 6.00622 20.8696 5.75843C21.1174 5.63453 21.4891 5.63453 21.7369 6.00622C21.7369 6.13012 22.1086 6.62572 22.1086 7.36911C22.1086 8.1125 21.7369 8.73199 21.7369 8.73199C21.7369 8.73199 21.4891 9.10368 21.4891 9.47538C21.4891 9.84708 21.7369 10.2188 21.7369 10.2188C21.8608 10.4666 21.8608 10.8383 21.4891 11.0861C21.3652 11.0861 21.2413 11.0861 21.1174 11.0861Z" fill="white"/>
<path d="M23.8431 11.0862C23.5953 11.0862 23.4714 10.9623 23.3475 10.8384C23.3475 10.8384 22.9758 10.2189 22.9758 9.47551C22.9758 8.73212 23.3475 8.11263 23.3475 8.11263C23.3475 8.11263 23.5953 7.74093 23.5953 7.36924C23.5953 6.99754 23.3475 6.62585 23.3475 6.62585C23.2236 6.37805 23.2236 6.00635 23.5953 5.75856C23.967 5.51076 24.2148 5.63466 24.4626 6.00635C24.4626 6.13025 24.8343 6.62585 24.8343 7.36924C24.8343 8.11263 24.4626 8.73212 24.4626 8.73212C24.4626 8.73212 24.2148 9.10382 24.2148 9.47551C24.2148 9.84721 24.4626 10.2189 24.4626 10.2189C24.5865 10.4667 24.5865 10.8384 24.2148 11.0862C24.0909 11.0862 23.967 11.0862 23.8431 11.0862Z" fill="white"/>
<path d="M29.1707 26.2019H13.064C12.6923 26.2019 12.4445 25.9541 12.4445 25.5824C12.4445 25.2107 12.6923 24.9629 13.064 24.9629H29.1707C29.5424 24.9629 29.7902 25.2107 29.7902 25.5824C29.7902 25.9541 29.5424 26.2019 29.1707 26.2019Z" fill="white"/>
<defs>
<filter id="filter0_d_6_245" x="0" y="0" width="41.7778" height="41.7778" filterUnits="userSpaceOnUse" color-interpolation-filters="sRGB">
<feFlood flood-opacity="0" result="BackgroundImageFix"/>
<feColorMatrix in="SourceAlpha" type="matrix" values="0 0 0 0 0 0 0 0 0 0 0 0 0 0 0 0 0 0 127 0" result="hardAlpha"/>
<feOffset dy="4"/>
<feGaussianBlur stdDeviation="2"/>
<feComposite in2="hardAlpha" operator="out"/>
<feColorMatrix type="matrix" values="0 0 0 0 0 0 0 0 0 0 0 0 0 0 0 0 0 0 0.25 0"/>
<feBlend mode="normal" in2="BackgroundImageFix" result="effect1_dropShadow_6_245"/>
<feBlend mode="normal" in="SourceGraphic" in2="effect1_dropShadow_6_245" result="shape"/>
</filter>
</defs>
</svg>
