<svg width="42" height="42" viewBox="0 0 42 42" fill="none" xmlns="http://www.w3.org/2000/svg">
    <g filter="url(#filter0_d_0_1)">
        <circle cx="20.8889" cy="16.8889" r="16.8889" fill="#EC2828"/>
        <circle cx="20.8889" cy="16.8889" r="16.3889" stroke="white"/>
    </g>
    <path d="M30 16.6L29.3086 17.2568C28.5652 17.9631 27.4081 17.9926 26.6295 17.3253L25.8016 16.6156C25.0526 15.9737 23.9474 15.9737 23.1984 16.6156L22.3016 17.3844C21.5526 18.0263 20.4474 18.0263 19.6984 17.3844L18.8016 16.6156C18.0526 15.9737 16.9474 15.9737 16.1984 16.6156L15.3705 17.3253C14.5919 17.9926 13.4348 17.963 12.6914 17.2568L12 16.6M21 8C15.7359 8 13.5508 9.71052 12.6437 11.1306C12.0491 12.0615 12.8954 13 14 13H28C29.1046 13 29.9508 12.0615 29.3563 11.1306C28.4492 9.71052 26.2641 8 21 8ZM13.5 21H28.5C29.3284 21 30 21.6716 30 22.5C30 23.3284 29.3284 24 28.5 24H13.5C12.6716 24 12 23.3284 12 22.5C12 21.6716 12.6716 21 13.5 21Z" stroke="white" stroke-width="1.3" stroke-linecap="round" stroke-linejoin="round"/>
    <defs>
        <filter id="filter0_d_0_1" x="0" y="0" width="41.7778" height="41.7778" filterUnits="userSpaceOnUse" color-interpolation-filters="sRGB">
            <feFlood flood-opacity="0" result="BackgroundImageFix"/>
            <feColorMatrix in="SourceAlpha" type="matrix" values="0 0 0 0 0 0 0 0 0 0 0 0 0 0 0 0 0 0 127 0" result="hardAlpha"/>
            <feOffset dy="4"/>
            <feGaussianBlur stdDeviation="2"/>
            <feComposite in2="hardAlpha" operator="out"/>
            <feColorMatrix type="matrix" values="0 0 0 0 0 0 0 0 0 0 0 0 0 0 0 0 0 0 0.25 0"/>
            <feBlend mode="normal" in2="BackgroundImageFix" result="effect1_dropShadow_0_1"/>
            <feBlend mode="normal" in="SourceGraphic" in2="effect1_dropShadow_0_1" result="shape"/>
        </filter>
    </defs>
</svg>
