<svg width="17" height="17" viewBox="0 0 17 17" fill="none" xmlns="http://www.w3.org/2000/svg">
    <circle cx="8.44444" cy="8.44444" r="7.94444" fill="#FFC400" stroke="white"/>
    <path d="M8.10147 4.88424C8.21007 4.64058 8.2644 4.51875 8.34003 4.48123C8.4057 4.44864 8.48283 4.44864 8.54851 4.48123C8.62413 4.51875 8.67846 4.64058 8.78706 4.88424L9.65215 6.82502C9.68429 6.89705 9.70033 6.93307 9.7252 6.96065C9.74715 6.98505 9.77403 7.00457 9.80401 7.01794C9.83793 7.03304 9.87715 7.03718 9.95559 7.04546L12.0687 7.26849C12.334 7.29648 12.4666 7.31048 12.5257 7.37081C12.577 7.42321 12.6008 7.49658 12.5901 7.56913C12.5778 7.65263 12.4787 7.74191 12.2806 7.92051L10.7021 9.34302C10.6435 9.3958 10.6142 9.42221 10.5957 9.45435C10.5793 9.48283 10.569 9.5144 10.5656 9.54705C10.5617 9.58397 10.5698 9.62254 10.5862 9.69971L11.0271 11.7783C11.0825 12.0393 11.1101 12.1698 11.071 12.2445C11.037 12.3096 10.9746 12.3549 10.9023 12.3671C10.8191 12.3812 10.7035 12.3146 10.4724 12.1813L8.63178 11.1196C8.56347 11.0802 8.52932 11.0606 8.49301 11.0528C8.46087 11.046 8.42766 11.046 8.39552 11.0528C8.35921 11.0606 8.32506 11.0802 8.25675 11.1196L6.41611 12.1813C6.18502 12.3146 6.06948 12.3812 5.98625 12.3671C5.91395 12.3549 5.85154 12.3096 5.81755 12.2445C5.77843 12.1698 5.8061 12.0393 5.86146 11.7783L6.30233 9.69971C6.3187 9.62254 6.32688 9.58397 6.32299 9.54705C6.31956 9.5144 6.3093 9.48283 6.29288 9.45435C6.27432 9.42221 6.24503 9.3958 6.18645 9.34302L4.60798 7.92051C4.40982 7.74191 4.31073 7.65263 4.29841 7.56913C4.28771 7.49658 4.31155 7.42321 4.36285 7.37081C4.4219 7.31048 4.55455 7.29648 4.81985 7.26849L6.93297 7.04546C7.0114 7.03718 7.05061 7.03304 7.08452 7.01794C7.11452 7.00457 7.14138 6.98505 7.16337 6.96065C7.18821 6.93307 7.20426 6.89705 7.23637 6.82502L8.10147 4.88424Z" stroke="white" stroke-linecap="round" stroke-linejoin="round"/>
</svg>