<svg width="42" height="42" viewBox="0 0 42 42" fill="none" xmlns="http://www.w3.org/2000/svg">
<g filter="url(#filter0_d_6_355)">
<circle cx="20.8889" cy="16.8889" r="16.8889" fill="#EC2828"/>
<circle cx="20.8889" cy="16.8889" r="16.3889" stroke="white"/>
</g>
<path d="M29.3864 9.4834L26.2228 6.21378C25.9473 5.92903 25.501 5.92868 25.2255 6.21309C24.95 6.49789 24.95 6.95925 25.2255 7.244L27.3349 9.42441C27.4554 9.54923 27.4554 9.75153 27.3343 9.87666L27.1401 10.078C27.0191 10.2028 26.823 10.2028 26.702 10.078L24.4783 7.77935C24.2659 7.56004 23.9229 7.56004 23.7104 7.779C23.4992 7.99793 23.4992 8.35311 23.7111 8.57238L25.9347 10.8711C26.0558 10.9959 26.0558 11.1985 25.9347 11.3236L25.7399 11.5246C25.6188 11.6498 25.4234 11.6498 25.3024 11.525L23.0781 9.22598C22.8663 9.00705 22.5226 9.00705 22.3108 9.22598C22.099 9.44525 22.099 9.79974 22.3108 10.0191L24.5351 12.3181C24.6561 12.4428 24.6561 12.6455 24.5351 12.7706L24.3403 12.9717C24.2192 13.0964 24.0232 13.0964 23.9027 12.972L21.6785 10.673C21.4667 10.454 21.1224 10.454 20.9112 10.673C20.6988 10.8919 20.6988 11.2471 20.9112 11.466L23.1355 13.765C23.2559 13.8898 23.2559 14.0925 23.1355 14.2173L22.9407 14.4186C22.8196 14.5438 22.6235 14.5438 22.5025 14.4186L20.2782 12.1196C20.0664 11.9007 19.7228 11.9007 19.511 12.1196C19.2991 12.3389 19.2991 12.6937 19.5116 12.9127L21.7352 15.2117C21.8563 15.3368 21.8563 15.5391 21.7352 15.6639L21.5404 15.8656C21.42 15.9904 21.2233 15.9904 21.1029 15.8659L18.8786 13.5669C18.6668 13.3473 18.3232 13.348 18.1114 13.5669C17.8996 13.7855 17.8996 14.141 18.1114 14.36L20.3356 16.659C20.456 16.7838 20.456 16.9861 20.335 17.1112L20.1408 17.3126C20.0197 17.4377 19.8237 17.4377 19.7033 17.3126L17.5938 15.1328C17.3183 14.8481 16.8719 14.8481 16.5964 15.1325C16.3209 15.4169 16.3209 15.8789 16.5964 16.1637L19.4858 19.2994C17.1607 21.7206 14.2347 22.9975 13.0117 24.262C11.5017 25.8224 11.9928 27.0748 12.5048 27.6036C13.0161 28.1321 13.8457 28.1321 14.357 27.6036L22.1545 19.5445L23.0037 18.6667L29.4942 11.9581C29.8233 11.6182 30.0055 11.1552 29.9999 10.6743C29.9942 10.1934 29.7237 9.81542 29.3864 9.4834Z" fill="white"/>
<defs>
<filter id="filter0_d_6_355" x="0" y="0" width="41.7778" height="41.7778" filterUnits="userSpaceOnUse" color-interpolation-filters="sRGB">
<feFlood flood-opacity="0" result="BackgroundImageFix"/>
<feColorMatrix in="SourceAlpha" type="matrix" values="0 0 0 0 0 0 0 0 0 0 0 0 0 0 0 0 0 0 127 0" result="hardAlpha"/>
<feOffset dy="4"/>
<feGaussianBlur stdDeviation="2"/>
<feComposite in2="hardAlpha" operator="out"/>
<feColorMatrix type="matrix" values="0 0 0 0 0 0 0 0 0 0 0 0 0 0 0 0 0 0 0.25 0"/>
<feBlend mode="normal" in2="BackgroundImageFix" result="effect1_dropShadow_6_355"/>
<feBlend mode="normal" in="SourceGraphic" in2="effect1_dropShadow_6_355" result="shape"/>
</filter>
</defs>
</svg>
