<svg width="42" height="42" viewBox="0 0 42 42" fill="none" xmlns="http://www.w3.org/2000/svg">
    <g filter="url(#filter0_d_0_1)">
        <circle cx="20.8889" cy="16.8889" r="16.8889" fill="#EC2828"/>
        <circle cx="20.8889" cy="16.8889" r="16.3889" stroke="white"/>
    </g>
    <path d="M25.792 7.22852C26.0172 6.99082 26.3812 6.99046 26.6064 7.22852L29.418 10.2012L29.4189 10.2021C29.7157 10.5009 29.9454 10.8325 29.9502 11.25C29.9551 11.6746 29.797 12.0826 29.5137 12.3818L23.7451 18.4805L22.9902 19.2783L16.0586 26.6055C15.6239 27.0648 14.9201 27.0647 14.4854 26.6055C14.2653 26.373 14.0481 25.98 14.0498 25.4727C14.0515 24.9661 14.2711 24.338 14.9355 23.6357C15.4743 23.0662 16.3895 22.4937 17.4375 21.7822C18.4825 21.0728 19.6532 20.2296 20.6904 19.125L20.7217 19.0908L20.6914 19.0566L18.123 16.2061L18.1221 16.2051L18.0479 16.1094C17.8989 15.871 17.9238 15.5464 18.1221 15.3369C18.3472 15.0992 18.7104 15.0991 18.9355 15.3369L20.8105 17.3184C20.9374 17.4532 21.1452 17.4529 21.2725 17.3184L21.4453 17.1357C21.5711 17.0028 21.5706 16.788 21.4453 16.6553L19.4688 14.5654C19.2987 14.3856 19.2988 14.0925 19.4688 13.9131C19.6374 13.7351 19.9097 13.7346 20.0781 13.9131L22.0547 16.0029C22.1814 16.1369 22.3898 16.1373 22.5166 16.0029L22.6895 15.8193C22.8153 15.6866 22.8152 15.4728 22.6895 15.3398L20.7129 13.25C20.5424 13.0703 20.5428 12.7777 20.7129 12.5977C20.8604 12.4417 21.0876 12.4219 21.2549 12.5391L21.3223 12.5977L23.2988 14.6875C23.4262 14.8221 23.6344 14.8221 23.7617 14.6875L23.9346 14.5049C24.0441 14.3887 24.0577 14.2099 23.9756 14.0781L23.9346 14.0244L21.957 11.9346C21.7867 11.7548 21.7866 11.4619 21.957 11.2822C22.1249 11.1043 22.3978 11.1044 22.5664 11.2822L24.5439 13.3721C24.6708 13.5061 24.8786 13.5062 25.0059 13.3721L25.1787 13.1895C25.3045 13.0564 25.3046 12.8417 25.1787 12.709L23.2012 10.6191C23.0314 10.439 23.0312 10.1468 23.2012 9.9668C23.3696 9.78873 23.642 9.78893 23.8105 9.9668L25.7881 12.0566C25.9154 12.1909 26.1227 12.1912 26.25 12.0566L26.249 12.0557L26.4229 11.874C26.5486 11.741 26.5488 11.5263 26.4229 11.3936L24.4463 9.30371C24.2764 9.12362 24.2759 8.83104 24.4453 8.65137C24.6145 8.47315 24.8865 8.4738 25.0557 8.65234L27.0322 10.7412C27.1595 10.8754 27.3668 10.8754 27.4941 10.7412L27.667 10.5586C27.7927 10.4256 27.7922 10.2118 27.667 10.0791L25.792 8.09668C25.5655 7.85721 25.5657 7.46815 25.792 7.22852Z" fill="white" stroke="#EC2828" stroke-width="0.1"/>
    <defs>
        <filter id="filter0_d_0_1" x="0" y="0" width="41.7778" height="41.7778" filterUnits="userSpaceOnUse" color-interpolation-filters="sRGB">
            <feFlood flood-opacity="0" result="BackgroundImageFix"/>
            <feColorMatrix in="SourceAlpha" type="matrix" values="0 0 0 0 0 0 0 0 0 0 0 0 0 0 0 0 0 0 127 0" result="hardAlpha"/>
            <feOffset dy="4"/>
            <feGaussianBlur stdDeviation="2"/>
            <feComposite in2="hardAlpha" operator="out"/>
            <feColorMatrix type="matrix" values="0 0 0 0 0 0 0 0 0 0 0 0 0 0 0 0 0 0 0.25 0"/>
            <feBlend mode="normal" in2="BackgroundImageFix" result="effect1_dropShadow_0_1"/>
            <feBlend mode="normal" in="SourceGraphic" in2="effect1_dropShadow_0_1" result="shape"/>
        </filter>
    </defs>
</svg>
