<svg width="42" height="42" viewBox="0 0 42 42" fill="none" xmlns="http://www.w3.org/2000/svg">
    <g filter="url(#filter0_d_0_1)">
        <circle cx="20.8889" cy="16.8889" r="16.8889" fill="#EC2828"/>
        <circle cx="20.8889" cy="16.8889" r="16.3889" stroke="white"/>
    </g>
    <path d="M12.264 15.3358C12.3478 14.2483 12.8206 13.2275 13.5958 12.4602C14.371 11.6929 15.3967 11.2307 16.485 11.1581C16.6535 9.96311 17.2583 8.87282 18.1829 8.09728C19.1074 7.32174 20.2863 6.91584 21.4923 6.95779C22.6984 6.99974 23.8462 7.48658 24.7147 8.32449C25.5831 9.1624 26.1107 10.2921 26.1958 11.4958C26.9676 11.8179 27.6354 12.3469 28.1255 13.0245C28.6157 13.7021 28.9091 14.502 28.9735 15.3358H29L21.4276 27.0189C21.3651 27.1153 21.2798 27.1949 21.1793 27.2504C21.0787 27.306 20.9659 27.3358 20.851 27.3374C20.7362 27.3389 20.6227 27.312 20.5207 27.2591C20.4186 27.2063 20.3313 27.129 20.2663 27.0343L12.25 15.3358H12.264ZM13.6654 15.3358H19.9075C19.8215 14.5682 19.4557 13.8593 18.8799 13.3444C18.3041 12.8296 17.5588 12.545 16.7865 12.545C16.0141 12.545 15.2688 12.8296 14.693 13.3444C14.1173 13.8593 13.7514 14.5682 13.6654 15.3358ZM21.3285 15.3358H27.5721C27.4875 14.567 27.1221 13.8564 26.5461 13.3402C25.97 12.8241 25.2237 12.5387 24.4503 12.5387C23.6768 12.5387 22.9306 12.8241 22.3545 13.3402C21.7784 13.8564 21.4131 14.567 21.3285 15.3358ZM14.8979 16.7316L20.826 25.3816L26.4317 16.7316H14.8979ZM20.618 13.256C21.0539 12.5679 21.6671 12.0099 22.3931 11.6408C23.1192 11.2716 23.9313 11.1048 24.7441 11.1581C24.5831 10.3572 24.1463 9.63825 23.5098 9.12637C22.8732 8.61448 22.0772 8.34212 21.2605 8.35673C20.4438 8.37135 19.6581 8.67201 19.0403 9.20634C18.4224 9.74067 18.0116 10.4748 17.8794 11.2809C19.0268 11.5642 20.0011 12.2859 20.618 13.256Z" fill="white"/>
    <defs>
        <filter id="filter0_d_0_1" x="0" y="0" width="41.7778" height="41.7778" filterUnits="userSpaceOnUse" color-interpolation-filters="sRGB">
            <feFlood flood-opacity="0" result="BackgroundImageFix"/>
            <feColorMatrix in="SourceAlpha" type="matrix" values="0 0 0 0 0 0 0 0 0 0 0 0 0 0 0 0 0 0 127 0" result="hardAlpha"/>
            <feOffset dy="4"/>
            <feGaussianBlur stdDeviation="2"/>
            <feComposite in2="hardAlpha" operator="out"/>
            <feColorMatrix type="matrix" values="0 0 0 0 0 0 0 0 0 0 0 0 0 0 0 0 0 0 0.25 0"/>
            <feBlend mode="normal" in2="BackgroundImageFix" result="effect1_dropShadow_0_1"/>
            <feBlend mode="normal" in="SourceGraphic" in2="effect1_dropShadow_0_1" result="shape"/>
        </filter>
    </defs>
</svg>
