<svg width="42" height="42" viewBox="0 0 42 42" fill="none" xmlns="http://www.w3.org/2000/svg">
<g filter="url(#filter0_d_6_285)">
<circle cx="20.8889" cy="16.8889" r="16.8889" fill="#EC2828"/>
<circle cx="20.8889" cy="16.8889" r="16.3889" stroke="white"/>
</g>
<path fill-rule="evenodd" clip-rule="evenodd" d="M18.3922 7.8317C18.1379 8.27829 17.9084 8.83151 17.6899 9.48397C16.0022 14.056 13.3916 20.7405 12.1314 23.9499C11.5591 25.4073 12.9532 26.8663 14.4351 26.3615C17.6641 25.2614 24.3436 23.0013 28.9094 21.562L28.9233 21.5575C29.5784 21.3395 30.1311 21.1157 30.5748 20.8685C31.0139 20.6239 31.4067 20.3234 31.6707 19.9234C32.2731 19.0106 31.9392 18.055 31.5408 17.3164C29.0342 12.6694 25.9007 9.40357 21.9877 6.91787C21.614 6.68051 21.1956 6.47894 20.7436 6.41522C20.259 6.34692 19.7833 6.44443 19.3552 6.72759C18.9543 6.99271 18.6456 7.38681 18.3922 7.8317ZM24.7371 13.8237C23.2857 12.275 21.7053 10.9663 19.6541 9.45407C19.7702 9.16259 19.8814 8.9275 19.9879 8.74048C20.1648 8.42987 20.2989 8.3051 20.3682 8.25923C20.4103 8.23142 20.432 8.22583 20.4872 8.23359C20.5747 8.24594 20.738 8.29961 21.003 8.46792C24.6478 10.7833 27.5653 13.8144 29.9246 18.1882C30.2533 18.7975 30.1471 18.9029 30.1385 18.9113C30.1003 18.9691 29.987 19.0939 29.681 19.2644C29.507 19.3613 29.2893 19.463 29.02 19.5702C27.4974 17.1493 26.1933 15.3776 24.7371 13.8237ZM23.3971 15.0794C24.6727 16.4405 25.8452 18.0048 27.2263 20.17C22.726 21.61 16.8139 23.6111 13.8429 24.6232L13.8414 24.6236L13.8402 24.6224L13.8407 24.6211C15.0004 21.6677 17.3106 15.7536 18.9927 11.2503C20.7858 12.592 22.1502 13.7488 23.3971 15.0794ZM20.0624 17.4124C21.0767 17.4124 21.8988 16.5903 21.8988 15.576C21.8988 14.5619 21.0767 13.7397 20.0624 13.7397C19.0483 13.7397 18.2261 14.5619 18.2261 15.576C18.2261 16.5903 19.0483 17.4124 20.0624 17.4124ZM20.0624 20.167C20.0624 21.1812 19.2403 22.0033 18.2261 22.0033C17.2119 22.0033 16.3897 21.1812 16.3897 20.167C16.3897 19.1527 17.2119 18.3306 18.2261 18.3306C19.2403 18.3306 20.0624 19.1527 20.0624 20.167ZM22.817 21.0851C23.8312 21.0851 24.6534 20.263 24.6534 19.2488C24.6534 18.2346 23.8312 17.4124 22.817 17.4124C21.8028 17.4124 20.9806 18.2346 20.9806 19.2488C20.9806 20.263 21.8028 21.0851 22.817 21.0851Z" fill="white"/>
<defs>
<filter id="filter0_d_6_285" x="0" y="0" width="41.7778" height="41.7778" filterUnits="userSpaceOnUse" color-interpolation-filters="sRGB">
<feFlood flood-opacity="0" result="BackgroundImageFix"/>
<feColorMatrix in="SourceAlpha" type="matrix" values="0 0 0 0 0 0 0 0 0 0 0 0 0 0 0 0 0 0 127 0" result="hardAlpha"/>
<feOffset dy="4"/>
<feGaussianBlur stdDeviation="2"/>
<feComposite in2="hardAlpha" operator="out"/>
<feColorMatrix type="matrix" values="0 0 0 0 0 0 0 0 0 0 0 0 0 0 0 0 0 0 0.25 0"/>
<feBlend mode="normal" in2="BackgroundImageFix" result="effect1_dropShadow_6_285"/>
<feBlend mode="normal" in="SourceGraphic" in2="effect1_dropShadow_6_285" result="shape"/>
</filter>
</defs>
</svg>
