<svg xmlns="http://www.w3.org/2000/svg" width="44" height="45" viewBox="0 0 44 45">
    <path d="M22 .853c12.15 0 22 9.85 22 22s-9.85 22-22 22-22-9.85-22-22 9.85-22 22-22zm0 2c-11.046 0-20 8.954-20 20s8.954 20 20 20 20-8.954 20-20-8.954-20-20-20zM11.152 26.687A11 11 0 0 0 22 35.864a11 11 0 0 0 10.848-9.177 1 1 0 1 1 1.972.332A13 13 0 0 1 22 37.864 13 13 0 0 1 9.18 27.019a1 1 0 1 1 1.972-.332zM30 14.853a5 5 0 0 1 5 5 1 1 0 0 1-1.993.117L33 19.853a3 3 0 0 0-3-3 3 3 0 0 0-3 3 1 1 0 1 1-2 0 5 5 0 0 1 5-5zm-16 0a5 5 0 0 1 5 5 1 1 0 0 1-1.993.117L17 19.853a3 3 0 0 0-3-3 3 3 0 0 0-3 3 1 1 0 1 1-2 0 5 5 0 0 1 5-5z"></path>
</svg>