<svg xmlns="http://www.w3.org/2000/svg" width="42" height="46" viewBox="0 0 42 46">
    <path d="M21 .854a14.98 14.98 0 0 1 13.253 7.999L36 8.853a4 4 0 0 1 4 4h0v11a4 4 0 0 1-4 4h0-2.514c-1.152 2.312-2.703 4.293-4.486 5.803v2.766a5 5 0 0 0 3.277 4.691l.253.085 8.765 2.7a1 1 0 0 1-.475 1.939l-.113-.028-8.765-2.7a7 7 0 0 1-4.934-6.388L27 36.422l.001-1.33c-1.887 1.13-3.94 1.761-6 1.761s-4.113-.631-6-1.761v1.331a7 7 0 0 1-4.657 6.592l-.284.094-8.765 2.7a1 1 0 0 1-.698-1.871l.109-.041 8.765-2.7a5 5 0 0 0 3.522-4.509l.007-.266v-2.767c-1.783-1.51-3.334-3.491-4.485-5.802H6a4 4 0 0 1-4-4h0v-11a4 4 0 0 1 4-4l1.748-.001A14.98 14.98 0 0 1 21 .854zm0 22.014a2.4 2.4 0 0 0-2.033 1.124h0l-2.119 3.391a1 1 0 0 1-.848.47h0l-5.218.001c1.027 1.796 2.322 3.32 3.763 4.484a.87.87 0 0 1 .151.118c1.943 1.526 4.142 2.397 6.305 2.397s4.361-.871 6.305-2.395c.045-.046.096-.087.15-.122 1.442-1.162 2.737-2.686 3.764-4.482L26 27.853a1 1 0 0 1-.848-.47h0l-2.118-3.39A2.4 2.4 0 0 0 21 22.868zm15-12.014H6a2 2 0 0 0-2 2h0v11a2 2 0 0 0 2 2h2.758l.052-.019c.223-.071.456-.06.663.019h5.972l1.827-2.922a4.4 4.4 0 0 1 1.384-1.387h0l.213-.126a4.4 4.4 0 0 1 4.261 0 4.4 4.4 0 0 1 1.598 1.514h0l1.825 2.921h5.973c.223-.086.477-.092.715-.001l2.757.001a2 2 0 0 0 1.284-.467h0l.13-.119A2 2 0 0 0 38 23.853h0v-11a2 2 0 0 0-2-2h0zm-3 4a1 1 0 0 1 .117 1.993l-.117.007H9a1 1 0 0 1-.117-1.993L9 14.853h24zM21 2.854a12.98 12.98 0 0 0-10.942 5.999h21.884A12.98 12.98 0 0 0 21 2.854z"></path>
</svg>