<svg xmlns="http://www.w3.org/2000/svg" width="26" height="32" viewBox="0 0 26 32">
    <path fill="#272e35" d="M13.206 9.21c1.256 0 3.645-1.733 6.111-1.475 1.155.037 2.286.342 3.302.891s1.891 1.329 2.553 2.275c-1.043.641-1.907 1.536-2.512 2.601s-.93 2.266-.946 3.49c.001 1.378.408 2.725 1.171 3.874s1.845 2.047 3.115 2.583c-.5 1.621-1.253 3.152-2.231 4.537-1.312 1.963-2.687 3.881-4.872 3.918-2.122.048-2.835-1.25-5.268-1.25-2.458 0-3.218 1.214-5.254 1.299-2.081.076-3.67-2.096-5.031-4.04-2.718-3.972-4.835-11.194-1.997-16.107a7.8 7.8 0 0 1 6.564-4.003c2.081-.044 4.015 1.406 5.295 1.406zM19.342 0a7.15 7.15 0 0 1-1.636 5.122c-.57.709-1.294 1.28-2.117 1.669s-1.723.586-2.633.577c-.058-.892.061-1.786.349-2.632s.74-1.627 1.33-2.298C15.842 1.061 17.522.191 19.342 0z"></path>
</svg>